<?xml version="1.0" encoding="UTF-8" standalone="no"?>
<!DOCTYPE svg PUBLIC "-//W3C//DTD SVG 1.1//EN"
 "http://www.w3.org/Graphics/SVG/1.1/DTD/svg11.dtd">
<!-- Generated by graphviz version 9.0.0 (0)
 -->
<!-- Pages: 1 -->
<svg width="731pt" height="2056pt"
 viewBox="0.00 0.00 730.62 2056.00" xmlns="http://www.w3.org/2000/svg" xmlns:xlink="http://www.w3.org/1999/xlink">
<g id="graph0" class="graph" transform="scale(1 1) rotate(0) translate(4 2052)">
<polygon fill="white" stroke="none" points="-4,4 -4,-2052 726.62,-2052 726.62,4 -4,4"/>
<!-- 13 -->
<g id="node1" class="node">
<title>13</title>
<g id="a_node1"><a xlink:title="/home/tomiguez/repos/2023&#45;2c&#45;tp&#45;tomas&#45;martin&#45;ignacio&#45;3/tlengrep/venv/lib/python3.11/site&#45;packages/_pytest/runner.py">
<polygon fill="#ff0000" stroke="#ff0000" points="165.25,-2048 0,-2048 0,-1992 165.25,-1992 165.25,-2048"/>
<text text-anchor="middle" x="82.62" y="-2034.5" font-family="Arial" font-size="10.00" fill="#ffffff">runner:111:pytest_runtest_protocol</text>
<text text-anchor="middle" x="82.62" y="-2022.5" font-family="Arial" font-size="10.00" fill="#ffffff">100.00%</text>
<text text-anchor="middle" x="82.62" y="-2010.5" font-family="Arial" font-size="10.00" fill="#ffffff">(0.00%)</text>
<text text-anchor="middle" x="82.62" y="-1998.5" font-family="Arial" font-size="10.00" fill="#ffffff">1×</text>
</a>
</g>
</g>
<!-- 77 -->
<g id="node2" class="node">
<title>77</title>
<g id="a_node2"><a xlink:title="/home/tomiguez/repos/2023&#45;2c&#45;tp&#45;tomas&#45;martin&#45;ignacio&#45;3/tlengrep/venv/lib/python3.11/site&#45;packages/_pytest/runner.py">
<polygon fill="#ff0000" stroke="#ff0000" points="146.88,-1950 18.38,-1950 18.38,-1894 146.88,-1894 146.88,-1950"/>
<text text-anchor="middle" x="82.62" y="-1936.5" font-family="Arial" font-size="10.00" fill="#ffffff">runner:119:runtestprotocol</text>
<text text-anchor="middle" x="82.62" y="-1924.5" font-family="Arial" font-size="10.00" fill="#ffffff">100.00%</text>
<text text-anchor="middle" x="82.62" y="-1912.5" font-family="Arial" font-size="10.00" fill="#ffffff">(0.00%)</text>
<text text-anchor="middle" x="82.62" y="-1900.5" font-family="Arial" font-size="10.00" fill="#ffffff">1×</text>
</a>
</g>
</g>
<!-- 13&#45;&gt;77 -->
<g id="edge1" class="edge">
<title>13&#45;&gt;77</title>
<path fill="none" stroke="#ff0000" stroke-width="4" d="M82.62,-1991.75C82.62,-1983.74 82.62,-1974.78 82.62,-1966.04"/>
<polygon fill="#ff0000" stroke="#ff0000" stroke-width="4" points="86.13,-1966.38 82.63,-1956.38 79.13,-1966.38 86.13,-1966.38"/>
<text text-anchor="middle" x="101.75" y="-1973.5" font-family="Arial" font-size="10.00" fill="#ff0000">100.00%</text>
<text text-anchor="middle" x="101.75" y="-1961.5" font-family="Arial" font-size="10.00" fill="#ff0000">1×</text>
</g>
<!-- 183 -->
<g id="node12" class="node">
<title>183</title>
<g id="a_node12"><a xlink:title="/home/tomiguez/repos/2023&#45;2c&#45;tp&#45;tomas&#45;martin&#45;ignacio&#45;3/tlengrep/venv/lib/python3.11/site&#45;packages/_pytest/runner.py">
<polygon fill="#ff0000" stroke="#ff0000" points="148,-1852 17.25,-1852 17.25,-1796 148,-1796 148,-1852"/>
<text text-anchor="middle" x="82.62" y="-1838.5" font-family="Arial" font-size="10.00" fill="#ffffff">runner:219:call_and_report</text>
<text text-anchor="middle" x="82.62" y="-1826.5" font-family="Arial" font-size="10.00" fill="#ffffff">100.00%</text>
<text text-anchor="middle" x="82.62" y="-1814.5" font-family="Arial" font-size="10.00" fill="#ffffff">(0.00%)</text>
<text text-anchor="middle" x="82.62" y="-1802.5" font-family="Arial" font-size="10.00" fill="#ffffff">3×</text>
</a>
</g>
</g>
<!-- 77&#45;&gt;183 -->
<g id="edge8" class="edge">
<title>77&#45;&gt;183</title>
<path fill="none" stroke="#ff0000" stroke-width="4" d="M82.62,-1893.75C82.62,-1885.74 82.62,-1876.78 82.62,-1868.04"/>
<polygon fill="#ff0000" stroke="#ff0000" stroke-width="4" points="86.13,-1868.38 82.63,-1858.38 79.13,-1868.38 86.13,-1868.38"/>
<text text-anchor="middle" x="101.75" y="-1875.5" font-family="Arial" font-size="10.00" fill="#ff0000">100.00%</text>
<text text-anchor="middle" x="101.75" y="-1863.5" font-family="Arial" font-size="10.00" fill="#ff0000">3×</text>
</g>
<!-- 43 -->
<g id="node3" class="node">
<title>43</title>
<g id="a_node3"><a xlink:title="/home/tomiguez/repos/2023&#45;2c&#45;tp&#45;tomas&#45;martin&#45;ignacio&#45;3/tlengrep/venv/lib/python3.11/site&#45;packages/pluggy/_callers.py">
<polygon fill="#ff0000" stroke="#ff0000" points="228.38,-1264 120.88,-1264 120.88,-1208 228.38,-1208 228.38,-1264"/>
<text text-anchor="middle" x="174.62" y="-1250.5" font-family="Arial" font-size="10.00" fill="#ffffff">_callers:27:_multicall</text>
<text text-anchor="middle" x="174.62" y="-1238.5" font-family="Arial" font-size="10.00" fill="#ffffff">100.00%</text>
<text text-anchor="middle" x="174.62" y="-1226.5" font-family="Arial" font-size="10.00" fill="#ffffff">(0.00%)</text>
<text text-anchor="middle" x="174.62" y="-1214.5" font-family="Arial" font-size="10.00" fill="#ffffff">19×</text>
</a>
</g>
</g>
<!-- 72 -->
<g id="node4" class="node">
<title>72</title>
<g id="a_node4"><a xlink:title="/home/tomiguez/repos/2023&#45;2c&#45;tp&#45;tomas&#45;martin&#45;ignacio&#45;3/tlengrep/venv/lib/python3.11/site&#45;packages/_pytest/runner.py">
<polygon fill="#ff0000" stroke="#ff0000" points="235.25,-1166 88,-1166 88,-1110 235.25,-1110 235.25,-1166"/>
<text text-anchor="middle" x="161.62" y="-1152.5" font-family="Arial" font-size="10.00" fill="#ffffff">runner:160:pytest_runtest_call</text>
<text text-anchor="middle" x="161.62" y="-1140.5" font-family="Arial" font-size="10.00" fill="#ffffff">100.00%</text>
<text text-anchor="middle" x="161.62" y="-1128.5" font-family="Arial" font-size="10.00" fill="#ffffff">(0.00%)</text>
<text text-anchor="middle" x="161.62" y="-1116.5" font-family="Arial" font-size="10.00" fill="#ffffff">1×</text>
</a>
</g>
</g>
<!-- 43&#45;&gt;72 -->
<g id="edge2" class="edge">
<title>43&#45;&gt;72</title>
<path fill="none" stroke="#ff0000" stroke-width="4" d="M170.93,-1207.75C169.85,-1199.74 168.64,-1190.78 167.45,-1182.04"/>
<polygon fill="#ff0000" stroke="#ff0000" stroke-width="4" points="170.95,-1181.76 166.14,-1172.32 164.01,-1182.7 170.95,-1181.76"/>
<text text-anchor="middle" x="189.75" y="-1189.5" font-family="Arial" font-size="10.00" fill="#ff0000">100.00%</text>
<text text-anchor="middle" x="189.75" y="-1177.5" font-family="Arial" font-size="10.00" fill="#ff0000">1×</text>
</g>
<!-- 82 -->
<g id="node5" class="node">
<title>82</title>
<g id="a_node5"><a xlink:title="/home/tomiguez/repos/2023&#45;2c&#45;tp&#45;tomas&#45;martin&#45;ignacio&#45;3/tlengrep/venv/lib/python3.11/site&#45;packages/_pytest/python.py">
<polygon fill="#ff0000" stroke="#ff0000" points="393,-1166 244.25,-1166 244.25,-1110 393,-1110 393,-1166"/>
<text text-anchor="middle" x="318.62" y="-1152.5" font-family="Arial" font-size="10.00" fill="#ffffff">python:187:pytest_pyfunc_call</text>
<text text-anchor="middle" x="318.62" y="-1140.5" font-family="Arial" font-size="10.00" fill="#ffffff">100.00%</text>
<text text-anchor="middle" x="318.62" y="-1128.5" font-family="Arial" font-size="10.00" fill="#ffffff">(0.00%)</text>
<text text-anchor="middle" x="318.62" y="-1116.5" font-family="Arial" font-size="10.00" fill="#ffffff">1×</text>
</a>
</g>
</g>
<!-- 43&#45;&gt;82 -->
<g id="edge3" class="edge">
<title>43&#45;&gt;82</title>
<path fill="none" stroke="#ff0000" stroke-width="4" d="M215.5,-1207.75C230.71,-1197.61 248.2,-1185.95 264.41,-1175.15"/>
<polygon fill="#ff0000" stroke="#ff0000" stroke-width="4" points="266.23,-1178.14 272.61,-1169.68 262.34,-1172.31 266.23,-1178.14"/>
<text text-anchor="middle" x="283.75" y="-1189.5" font-family="Arial" font-size="10.00" fill="#ff0000">100.00%</text>
<text text-anchor="middle" x="283.75" y="-1177.5" font-family="Arial" font-size="10.00" fill="#ff0000">1×</text>
</g>
<!-- 182 -->
<g id="node11" class="node">
<title>182</title>
<g id="a_node11"><a xlink:title="/home/tomiguez/repos/2023&#45;2c&#45;tp&#45;tomas&#45;martin&#45;ignacio&#45;3/tlengrep/venv/lib/python3.11/site&#45;packages/_pytest/python.py">
<polygon fill="#ff0000" stroke="#ff0000" points="146.75,-1068 44.5,-1068 44.5,-1012 146.75,-1012 146.75,-1068"/>
<text text-anchor="middle" x="95.62" y="-1054.5" font-family="Arial" font-size="10.00" fill="#ffffff">python:1790:runtest</text>
<text text-anchor="middle" x="95.62" y="-1042.5" font-family="Arial" font-size="10.00" fill="#ffffff">100.00%</text>
<text text-anchor="middle" x="95.62" y="-1030.5" font-family="Arial" font-size="10.00" fill="#ffffff">(0.00%)</text>
<text text-anchor="middle" x="95.62" y="-1018.5" font-family="Arial" font-size="10.00" fill="#ffffff">1×</text>
</a>
</g>
</g>
<!-- 72&#45;&gt;182 -->
<g id="edge7" class="edge">
<title>72&#45;&gt;182</title>
<path fill="none" stroke="#ff0000" stroke-width="4" d="M142.89,-1109.75C136.83,-1100.93 129.97,-1090.96 123.4,-1081.4"/>
<polygon fill="#ff0000" stroke="#ff0000" stroke-width="4" points="126.39,-1079.57 117.84,-1073.31 120.62,-1083.53 126.39,-1079.57"/>
<text text-anchor="middle" x="155.75" y="-1091.5" font-family="Arial" font-size="10.00" fill="#ff0000">100.00%</text>
<text text-anchor="middle" x="155.75" y="-1079.5" font-family="Arial" font-size="10.00" fill="#ff0000">1×</text>
</g>
<!-- 121 -->
<g id="node13" class="node">
<title>121</title>
<g id="a_node13"><a xlink:title="/home/tomiguez/repos/2023&#45;2c&#45;tp&#45;tomas&#45;martin&#45;ignacio&#45;3/tlengrep/tests/test_parser.py">
<polygon fill="#ff0000" stroke="#ff0000" points="411.38,-1068 225.88,-1068 225.88,-1012 411.38,-1012 411.38,-1068"/>
<text text-anchor="middle" x="318.62" y="-1054.5" font-family="Arial" font-size="10.00" fill="#ffffff">test_parser:267:test_parse_and_match</text>
<text text-anchor="middle" x="318.62" y="-1042.5" font-family="Arial" font-size="10.00" fill="#ffffff">100.00%</text>
<text text-anchor="middle" x="318.62" y="-1030.5" font-family="Arial" font-size="10.00" fill="#ffffff">(0.00%)</text>
<text text-anchor="middle" x="318.62" y="-1018.5" font-family="Arial" font-size="10.00" fill="#ffffff">1×</text>
</a>
</g>
</g>
<!-- 82&#45;&gt;121 -->
<g id="edge9" class="edge">
<title>82&#45;&gt;121</title>
<path fill="none" stroke="#ff0000" stroke-width="4" d="M318.62,-1109.75C318.62,-1101.74 318.62,-1092.78 318.62,-1084.04"/>
<polygon fill="#ff0000" stroke="#ff0000" stroke-width="4" points="322.13,-1084.38 318.63,-1074.38 315.13,-1084.38 322.13,-1084.38"/>
<text text-anchor="middle" x="337.75" y="-1091.5" font-family="Arial" font-size="10.00" fill="#ff0000">100.00%</text>
<text text-anchor="middle" x="337.75" y="-1079.5" font-family="Arial" font-size="10.00" fill="#ff0000">1×</text>
</g>
<!-- 44 -->
<g id="node6" class="node">
<title>44</title>
<g id="a_node6"><a xlink:title="/home/tomiguez/repos/2023&#45;2c&#45;tp&#45;tomas&#45;martin&#45;ignacio&#45;3/tlengrep/venv/lib/python3.11/site&#45;packages/pluggy/_manager.py">
<polygon fill="#ff0000" stroke="#ff0000" points="226.5,-1362 98.75,-1362 98.75,-1306 226.5,-1306 226.5,-1362"/>
<text text-anchor="middle" x="162.62" y="-1348.5" font-family="Arial" font-size="10.00" fill="#ffffff">_manager:106:_hookexec</text>
<text text-anchor="middle" x="162.62" y="-1336.5" font-family="Arial" font-size="10.00" fill="#ffffff">100.00%</text>
<text text-anchor="middle" x="162.62" y="-1324.5" font-family="Arial" font-size="10.00" fill="#ffffff">(0.00%)</text>
<text text-anchor="middle" x="162.62" y="-1312.5" font-family="Arial" font-size="10.00" fill="#ffffff">19×</text>
</a>
</g>
</g>
<!-- 44&#45;&gt;43 -->
<g id="edge4" class="edge">
<title>44&#45;&gt;43</title>
<path fill="none" stroke="#ff0000" stroke-width="4" d="M166.03,-1305.75C167.03,-1297.74 168.15,-1288.78 169.24,-1280.04"/>
<polygon fill="#ff0000" stroke="#ff0000" stroke-width="4" points="172.69,-1280.69 170.46,-1270.33 165.75,-1279.82 172.69,-1280.69"/>
<text text-anchor="middle" x="189.75" y="-1287.5" font-family="Arial" font-size="10.00" fill="#ff0000">100.00%</text>
<text text-anchor="middle" x="189.75" y="-1275.5" font-family="Arial" font-size="10.00" fill="#ff0000">11×</text>
</g>
<!-- 61 -->
<g id="node7" class="node">
<title>61</title>
<g id="a_node7"><a xlink:title="~">
<polygon fill="#0d1876" stroke="#0d1876" points="438.12,-350 263.12,-350 263.12,-294 438.12,-294 438.12,-350"/>
<text text-anchor="middle" x="350.62" y="-336.5" font-family="Arial" font-size="10.00" fill="#ffffff">~:0:&lt;method &#39;keys&#39; of &#39;dict&#39; objects&gt;</text>
<text text-anchor="middle" x="350.62" y="-324.5" font-family="Arial" font-size="10.00" fill="#ffffff">2.73%</text>
<text text-anchor="middle" x="350.62" y="-312.5" font-family="Arial" font-size="10.00" fill="#ffffff">(2.73%)</text>
<text text-anchor="middle" x="350.62" y="-300.5" font-family="Arial" font-size="10.00" fill="#ffffff">55615574×</text>
</a>
</g>
</g>
<!-- 62 -->
<g id="node8" class="node">
<title>62</title>
<g id="a_node8"><a xlink:title="/home/tomiguez/repos/2023&#45;2c&#45;tp&#45;tomas&#45;martin&#45;ignacio&#45;3/tlengrep/venv/lib/python3.11/site&#45;packages/_pytest/runner.py">
<polygon fill="#ff0000" stroke="#ff0000" points="134.88,-1656 30.38,-1656 30.38,-1600 134.88,-1600 134.88,-1656"/>
<text text-anchor="middle" x="82.62" y="-1642.5" font-family="Arial" font-size="10.00" fill="#ffffff">runner:318:from_call</text>
<text text-anchor="middle" x="82.62" y="-1630.5" font-family="Arial" font-size="10.00" fill="#ffffff">100.00%</text>
<text text-anchor="middle" x="82.62" y="-1618.5" font-family="Arial" font-size="10.00" fill="#ffffff">(0.00%)</text>
<text text-anchor="middle" x="82.62" y="-1606.5" font-family="Arial" font-size="10.00" fill="#ffffff">3×</text>
</a>
</g>
</g>
<!-- 224 -->
<g id="node9" class="node">
<title>224</title>
<g id="a_node9"><a xlink:title="/home/tomiguez/repos/2023&#45;2c&#45;tp&#45;tomas&#45;martin&#45;ignacio&#45;3/tlengrep/venv/lib/python3.11/site&#45;packages/_pytest/runner.py">
<polygon fill="#ff0000" stroke="#ff0000" points="136.75,-1558 28.5,-1558 28.5,-1502 136.75,-1502 136.75,-1558"/>
<text text-anchor="middle" x="82.62" y="-1544.5" font-family="Arial" font-size="10.00" fill="#ffffff">runner:262:&lt;lambda&gt;</text>
<text text-anchor="middle" x="82.62" y="-1532.5" font-family="Arial" font-size="10.00" fill="#ffffff">100.00%</text>
<text text-anchor="middle" x="82.62" y="-1520.5" font-family="Arial" font-size="10.00" fill="#ffffff">(0.00%)</text>
<text text-anchor="middle" x="82.62" y="-1508.5" font-family="Arial" font-size="10.00" fill="#ffffff">3×</text>
</a>
</g>
</g>
<!-- 62&#45;&gt;224 -->
<g id="edge5" class="edge">
<title>62&#45;&gt;224</title>
<path fill="none" stroke="#ff0000" stroke-width="4" d="M82.62,-1599.75C82.62,-1591.74 82.62,-1582.78 82.62,-1574.04"/>
<polygon fill="#ff0000" stroke="#ff0000" stroke-width="4" points="86.13,-1574.38 82.63,-1564.38 79.13,-1574.38 86.13,-1574.38"/>
<text text-anchor="middle" x="101.75" y="-1581.5" font-family="Arial" font-size="10.00" fill="#ff0000">100.00%</text>
<text text-anchor="middle" x="101.75" y="-1569.5" font-family="Arial" font-size="10.00" fill="#ff0000">3×</text>
</g>
<!-- 292 -->
<g id="node30" class="node">
<title>292</title>
<g id="a_node30"><a xlink:title="/home/tomiguez/repos/2023&#45;2c&#45;tp&#45;tomas&#45;martin&#45;ignacio&#45;3/tlengrep/venv/lib/python3.11/site&#45;packages/pluggy/_hooks.py">
<polygon fill="#ff0000" stroke="#ff0000" points="135.25,-1460 30,-1460 30,-1404 135.25,-1404 135.25,-1460"/>
<text text-anchor="middle" x="82.62" y="-1446.5" font-family="Arial" font-size="10.00" fill="#ffffff">_hooks:479:__call__</text>
<text text-anchor="middle" x="82.62" y="-1434.5" font-family="Arial" font-size="10.00" fill="#ffffff">100.00%</text>
<text text-anchor="middle" x="82.62" y="-1422.5" font-family="Arial" font-size="10.00" fill="#ffffff">(0.00%)</text>
<text text-anchor="middle" x="82.62" y="-1410.5" font-family="Arial" font-size="10.00" fill="#ffffff">19×</text>
</a>
</g>
</g>
<!-- 224&#45;&gt;292 -->
<g id="edge34" class="edge">
<title>224&#45;&gt;292</title>
<path fill="none" stroke="#ff0000" stroke-width="4" d="M82.62,-1501.75C82.62,-1493.74 82.62,-1484.78 82.62,-1476.04"/>
<polygon fill="#ff0000" stroke="#ff0000" stroke-width="4" points="86.13,-1476.38 82.63,-1466.38 79.13,-1476.38 86.13,-1476.38"/>
<text text-anchor="middle" x="101.75" y="-1483.5" font-family="Arial" font-size="10.00" fill="#ff0000">100.00%</text>
<text text-anchor="middle" x="101.75" y="-1471.5" font-family="Arial" font-size="10.00" fill="#ff0000">3×</text>
</g>
<!-- 63 -->
<g id="node10" class="node">
<title>63</title>
<g id="a_node10"><a xlink:title="/home/tomiguez/repos/2023&#45;2c&#45;tp&#45;tomas&#45;martin&#45;ignacio&#45;3/tlengrep/venv/lib/python3.11/site&#45;packages/_pytest/runner.py">
<polygon fill="#ff0000" stroke="#ff0000" points="153.25,-1754 12,-1754 12,-1698 153.25,-1698 153.25,-1754"/>
<text text-anchor="middle" x="82.62" y="-1740.5" font-family="Arial" font-size="10.00" fill="#ffffff">runner:247:call_runtest_hook</text>
<text text-anchor="middle" x="82.62" y="-1728.5" font-family="Arial" font-size="10.00" fill="#ffffff">100.00%</text>
<text text-anchor="middle" x="82.62" y="-1716.5" font-family="Arial" font-size="10.00" fill="#ffffff">(0.00%)</text>
<text text-anchor="middle" x="82.62" y="-1704.5" font-family="Arial" font-size="10.00" fill="#ffffff">3×</text>
</a>
</g>
</g>
<!-- 63&#45;&gt;62 -->
<g id="edge6" class="edge">
<title>63&#45;&gt;62</title>
<path fill="none" stroke="#ff0000" stroke-width="4" d="M82.62,-1697.75C82.62,-1689.74 82.62,-1680.78 82.62,-1672.04"/>
<polygon fill="#ff0000" stroke="#ff0000" stroke-width="4" points="86.13,-1672.38 82.63,-1662.38 79.13,-1672.38 86.13,-1672.38"/>
<text text-anchor="middle" x="101.75" y="-1679.5" font-family="Arial" font-size="10.00" fill="#ff0000">100.00%</text>
<text text-anchor="middle" x="101.75" y="-1667.5" font-family="Arial" font-size="10.00" fill="#ff0000">3×</text>
</g>
<!-- 182&#45;&gt;292 -->
<g id="edge31" class="edge">
<title>182&#45;&gt;292</title>
<path fill="none" stroke="#ff0000" stroke-width="4" d="M85.91,-1068.35C80.02,-1087.35 73.62,-1113.4 73.62,-1137 73.62,-1335 73.62,-1335 73.62,-1335 73.62,-1352.36 75.1,-1371.41 76.86,-1387.93"/>
<polygon fill="#ff0000" stroke="#ff0000" stroke-width="4" points="73.37,-1388.21 78,-1397.74 80.32,-1387.4 73.37,-1388.21"/>
<text text-anchor="middle" x="92.75" y="-1238.5" font-family="Arial" font-size="10.00" fill="#ff0000">100.00%</text>
<text text-anchor="middle" x="92.75" y="-1226.5" font-family="Arial" font-size="10.00" fill="#ff0000">1×</text>
</g>
<!-- 183&#45;&gt;63 -->
<g id="edge32" class="edge">
<title>183&#45;&gt;63</title>
<path fill="none" stroke="#ff0000" stroke-width="4" d="M82.62,-1795.75C82.62,-1787.74 82.62,-1778.78 82.62,-1770.04"/>
<polygon fill="#ff0000" stroke="#ff0000" stroke-width="4" points="86.13,-1770.38 82.63,-1760.38 79.13,-1770.38 86.13,-1770.38"/>
<text text-anchor="middle" x="101.75" y="-1777.5" font-family="Arial" font-size="10.00" fill="#ff0000">100.00%</text>
<text text-anchor="middle" x="101.75" y="-1765.5" font-family="Arial" font-size="10.00" fill="#ff0000">3×</text>
</g>
<!-- 120 -->
<g id="node25" class="node">
<title>120</title>
<g id="a_node25"><a xlink:title="/home/tomiguez/repos/2023&#45;2c&#45;tp&#45;tomas&#45;martin&#45;ignacio&#45;3/tlengrep/regex/__init__.py">
<polygon fill="#ff0000" stroke="#ff0000" points="365.25,-970 272,-970 272,-914 365.25,-914 365.25,-970"/>
<text text-anchor="middle" x="318.62" y="-956.5" font-family="Arial" font-size="10.00" fill="#ffffff">__init__:19:match</text>
<text text-anchor="middle" x="318.62" y="-944.5" font-family="Arial" font-size="10.00" fill="#ffffff">99.99%</text>
<text text-anchor="middle" x="318.62" y="-932.5" font-family="Arial" font-size="10.00" fill="#ffffff">(0.23%)</text>
<text text-anchor="middle" x="318.62" y="-920.5" font-family="Arial" font-size="10.00" fill="#ffffff">267×</text>
</a>
</g>
</g>
<!-- 121&#45;&gt;120 -->
<g id="edge25" class="edge">
<title>121&#45;&gt;120</title>
<path fill="none" stroke="#ff0000" stroke-width="4" d="M318.62,-1011.75C318.62,-1003.74 318.62,-994.78 318.62,-986.04"/>
<polygon fill="#ff0000" stroke="#ff0000" stroke-width="4" points="322.13,-986.38 318.63,-976.38 315.13,-986.38 322.13,-986.38"/>
<text text-anchor="middle" x="335.12" y="-993.5" font-family="Arial" font-size="10.00" fill="#ff0000">99.99%</text>
<text text-anchor="middle" x="335.12" y="-981.5" font-family="Arial" font-size="10.00" fill="#ff0000">267×</text>
</g>
<!-- 101 -->
<g id="node14" class="node">
<title>101</title>
<g id="a_node14"><a xlink:title="/home/tomiguez/repos/2023&#45;2c&#45;tp&#45;tomas&#45;martin&#45;ignacio&#45;3/tlengrep/automata/afnd.py">
<polygon fill="#dec405" stroke="#dec405" points="489.5,-644 409.75,-644 409.75,-588 489.5,-588 489.5,-644"/>
<text text-anchor="middle" x="449.62" y="-630.5" font-family="Arial" font-size="10.00" fill="#ffffff">afnd:127:union</text>
<text text-anchor="middle" x="449.62" y="-618.5" font-family="Arial" font-size="10.00" fill="#ffffff">78.01%</text>
<text text-anchor="middle" x="449.62" y="-606.5" font-family="Arial" font-size="10.00" fill="#ffffff">(0.04%)</text>
<text text-anchor="middle" x="449.62" y="-594.5" font-family="Arial" font-size="10.00" fill="#ffffff">16821×</text>
</a>
</g>
</g>
<!-- 116 -->
<g id="node15" class="node">
<title>116</title>
<g id="a_node15"><a xlink:title="/home/tomiguez/repos/2023&#45;2c&#45;tp&#45;tomas&#45;martin&#45;ignacio&#45;3/tlengrep/automata/afnd.py">
<polygon fill="#e3a904" stroke="#e3a904" points="494,-546 405.25,-546 405.25,-490 494,-490 494,-546"/>
<text text-anchor="middle" x="449.62" y="-532.5" font-family="Arial" font-size="10.00" fill="#ffffff">afnd:166:_merge</text>
<text text-anchor="middle" x="449.62" y="-520.5" font-family="Arial" font-size="10.00" fill="#ffffff">81.47%</text>
<text text-anchor="middle" x="449.62" y="-508.5" font-family="Arial" font-size="10.00" fill="#ffffff">(0.12%)</text>
<text text-anchor="middle" x="449.62" y="-496.5" font-family="Arial" font-size="10.00" fill="#ffffff">17088×</text>
</a>
</g>
</g>
<!-- 101&#45;&gt;116 -->
<g id="edge10" class="edge">
<title>101&#45;&gt;116</title>
<path fill="none" stroke="#dec505" stroke-width="3.11" d="M449.62,-587.75C449.62,-579.03 449.62,-569.19 449.62,-559.73"/>
<polygon fill="#dec505" stroke="#dec505" stroke-width="3.11" points="452.71,-559.83 449.63,-551.03 446.55,-559.83 452.71,-559.83"/>
<text text-anchor="middle" x="466.12" y="-569.5" font-family="Arial" font-size="10.00" fill="#dec505">77.87%</text>
<text text-anchor="middle" x="466.12" y="-557.5" font-family="Arial" font-size="10.00" fill="#dec505">16821×</text>
</g>
<!-- 113 -->
<g id="node18" class="node">
<title>113</title>
<g id="a_node18"><a xlink:title="/home/tomiguez/repos/2023&#45;2c&#45;tp&#45;tomas&#45;martin&#45;ignacio&#45;3/tlengrep/automata/af.py">
<polygon fill="#ec7903" stroke="#ec7903" points="439.12,-448 324.12,-448 324.12,-392 439.12,-392 439.12,-448"/>
<text text-anchor="middle" x="381.62" y="-434.5" font-family="Arial" font-size="10.00" fill="#ffffff">af:52:normalize_states</text>
<text text-anchor="middle" x="381.62" y="-422.5" font-family="Arial" font-size="10.00" fill="#ffffff">87.35%</text>
<text text-anchor="middle" x="381.62" y="-410.5" font-family="Arial" font-size="10.00" fill="#ffffff">(15.35%)</text>
<text text-anchor="middle" x="381.62" y="-398.5" font-family="Arial" font-size="10.00" fill="#ffffff">34710×</text>
</a>
</g>
</g>
<!-- 116&#45;&gt;113 -->
<g id="edge21" class="edge">
<title>116&#45;&gt;113</title>
<path fill="none" stroke="#e3ab04" stroke-width="3.25" d="M430.32,-489.75C423.65,-480.32 416.03,-469.58 408.84,-459.43"/>
<polygon fill="#e3ab04" stroke="#e3ab04" stroke-width="3.25" points="411.59,-457.86 403.82,-452.34 406.45,-461.5 411.59,-457.86"/>
<text text-anchor="middle" x="440.12" y="-471.5" font-family="Arial" font-size="10.00" fill="#e3ab04">81.29%</text>
<text text-anchor="middle" x="440.12" y="-459.5" font-family="Arial" font-size="10.00" fill="#e3ab04">34176×</text>
</g>
<!-- 102 -->
<g id="node16" class="node">
<title>102</title>
<g id="a_node16"><a xlink:title="/home/tomiguez/repos/2023&#45;2c&#45;tp&#45;tomas&#45;martin&#45;ignacio&#45;3/tlengrep/regex/__init__.py">
<polygon fill="#dec305" stroke="#dec305" points="490.5,-774 386.75,-774 386.75,-718 490.5,-718 490.5,-774"/>
<text text-anchor="middle" x="438.62" y="-760.5" font-family="Arial" font-size="10.00" fill="#ffffff">__init__:133:to_afnd</text>
<text text-anchor="middle" x="438.62" y="-748.5" font-family="Arial" font-size="10.00" fill="#ffffff">78.16%</text>
<text text-anchor="middle" x="438.62" y="-736.5" font-family="Arial" font-size="10.00" fill="#ffffff">(0.06%)</text>
<text text-anchor="middle" x="438.62" y="-724.5" font-family="Arial" font-size="10.00" fill="#ffffff">16821×</text>
</a>
</g>
</g>
<!-- 102&#45;&gt;101 -->
<g id="edge11" class="edge">
<title>102&#45;&gt;101</title>
<path fill="none" stroke="#dec405" stroke-width="3.12" d="M440.98,-717.54C442.49,-700.08 444.46,-677.16 446.14,-657.61"/>
<polygon fill="#dec405" stroke="#dec405" stroke-width="3.12" points="449.18,-658.15 446.86,-649.12 443.04,-657.62 449.18,-658.15"/>
<text text-anchor="middle" x="462.12" y="-683.5" font-family="Arial" font-size="10.00" fill="#dec405">78.01%</text>
<text text-anchor="middle" x="462.12" y="-671.5" font-family="Arial" font-size="10.00" fill="#dec405">16821×</text>
</g>
<!-- 102&#45;&gt;102 -->
<g id="edge12" class="edge">
<title>102&#45;&gt;102</title>
<path fill="none" stroke="#d7d906" stroke-width="2.99" d="M490.8,-753.55C493.12,-752.9 495.08,-752.05 495.81,-750.37"/>
<polygon fill="#d7d906" stroke="#d7d906" stroke-width="2.99" points="498.66,-749.38 492.55,-742.62 493.11,-751.71 498.66,-749.38"/>
<text text-anchor="middle" x="516" y="-748.5" font-family="Arial" font-size="10.00" fill="#d7d906">74.70%</text>
<text text-anchor="middle" x="516" y="-736.5" font-family="Arial" font-size="10.00" fill="#d7d906">267×</text>
</g>
<!-- 112 -->
<g id="node17" class="node">
<title>112</title>
<g id="a_node17"><a xlink:title="/home/tomiguez/repos/2023&#45;2c&#45;tp&#45;tomas&#45;martin&#45;ignacio&#45;3/tlengrep/automata/afnd.py">
<polygon fill="#0d1c77" stroke="#0d1c77" points="585.12,-709 500.12,-709 500.12,-653 585.12,-653 585.12,-709"/>
<text text-anchor="middle" x="542.62" y="-695.5" font-family="Arial" font-size="10.00" fill="#ffffff">afnd:110:concat</text>
<text text-anchor="middle" x="542.62" y="-683.5" font-family="Arial" font-size="10.00" fill="#ffffff">3.64%</text>
<text text-anchor="middle" x="542.62" y="-671.5" font-family="Arial" font-size="10.00" fill="#ffffff">(0.01%)</text>
<text text-anchor="middle" x="542.62" y="-659.5" font-family="Arial" font-size="10.00" fill="#ffffff">267×</text>
</a>
</g>
</g>
<!-- 112&#45;&gt;116 -->
<g id="edge13" class="edge">
<title>112&#45;&gt;116</title>
<path fill="none" stroke="#0d1c77" stroke-width="0.5" d="M532.96,-652.51C523.02,-626.2 505.99,-586.04 484.62,-555 483.26,-553.02 481.79,-551.05 480.24,-549.11"/>
<polygon fill="#0d1c77" stroke="#0d1c77" stroke-width="0.5" points="481.41,-548.6 478.24,-546.67 479.51,-550.15 481.41,-548.6"/>
<text text-anchor="middle" x="542.5" y="-618.5" font-family="Arial" font-size="10.00" fill="#0d1c77">3.60%</text>
<text text-anchor="middle" x="542.5" y="-606.5" font-family="Arial" font-size="10.00" fill="#0d1c77">267×</text>
</g>
<!-- 113&#45;&gt;61 -->
<g id="edge14" class="edge">
<title>113&#45;&gt;61</title>
<path fill="none" stroke="#0d1876" stroke-width="0.5" d="M372.82,-391.75C369.06,-380.09 364.65,-366.42 360.75,-354.35"/>
<polygon fill="#0d1876" stroke="#0d1876" stroke-width="0.5" points="361.92,-354 359.68,-351.04 359.59,-354.75 361.92,-354"/>
<text text-anchor="middle" x="393.62" y="-373.5" font-family="Arial" font-size="10.00" fill="#0d1876">2.73%</text>
<text text-anchor="middle" x="393.62" y="-361.5" font-family="Arial" font-size="10.00" fill="#0d1876">55615566×</text>
</g>
<!-- 142 -->
<g id="node19" class="node">
<title>142</title>
<g id="a_node19"><a xlink:title="/home/tomiguez/repos/2023&#45;2c&#45;tp&#45;tomas&#45;martin&#45;ignacio&#45;3/tlengrep/automata/af.py">
<polygon fill="#9ed007" stroke="#9ed007" points="556.5,-350 446.75,-350 446.75,-294 556.5,-294 556.5,-350"/>
<text text-anchor="middle" x="501.62" y="-336.5" font-family="Arial" font-size="10.00" fill="#ffffff">af:112:_rename_state</text>
<text text-anchor="middle" x="501.62" y="-324.5" font-family="Arial" font-size="10.00" fill="#ffffff">68.76%</text>
<text text-anchor="middle" x="501.62" y="-312.5" font-family="Arial" font-size="10.00" fill="#ffffff">(1.56%)</text>
<text text-anchor="middle" x="501.62" y="-300.5" font-family="Arial" font-size="10.00" fill="#ffffff">1717878×</text>
</a>
</g>
</g>
<!-- 113&#45;&gt;142 -->
<g id="edge15" class="edge">
<title>113&#45;&gt;142</title>
<path fill="none" stroke="#9ed007" stroke-width="2.75" d="M415.69,-391.75C428.87,-381.21 444.1,-369.02 458.06,-357.85"/>
<polygon fill="#9ed007" stroke="#9ed007" stroke-width="2.75" points="459.56,-360.37 464.22,-352.92 455.93,-355.84 459.56,-360.37"/>
<text text-anchor="middle" x="477" y="-373.5" font-family="Arial" font-size="10.00" fill="#9ed007">68.76%</text>
<text text-anchor="middle" x="477" y="-361.5" font-family="Arial" font-size="10.00" fill="#9ed007">1717878×</text>
</g>
<!-- 141 -->
<g id="node27" class="node">
<title>141</title>
<g id="a_node27"><a xlink:title="/home/tomiguez/repos/2023&#45;2c&#45;tp&#45;tomas&#45;martin&#45;ignacio&#45;3/tlengrep/automata/afd.py">
<polygon fill="#0d277a" stroke="#0d277a" points="529.38,-252 355.88,-252 355.88,-196 529.38,-196 529.38,-252"/>
<text text-anchor="middle" x="442.62" y="-238.5" font-family="Arial" font-size="10.00" fill="#ffffff">afd:78:_rename_state_in_transitions</text>
<text text-anchor="middle" x="442.62" y="-226.5" font-family="Arial" font-size="10.00" fill="#ffffff">5.99%</text>
<text text-anchor="middle" x="442.62" y="-214.5" font-family="Arial" font-size="10.00" fill="#ffffff">(5.99%)</text>
<text text-anchor="middle" x="442.62" y="-202.5" font-family="Arial" font-size="10.00" fill="#ffffff">18156×</text>
</a>
</g>
</g>
<!-- 142&#45;&gt;141 -->
<g id="edge26" class="edge">
<title>142&#45;&gt;141</title>
<path fill="none" stroke="#0d277a" stroke-width="0.5" d="M484.88,-293.75C477.59,-281.89 469.02,-267.94 461.5,-255.72"/>
<polygon fill="#0d277a" stroke="#0d277a" stroke-width="0.5" points="462.69,-255.31 459.81,-252.97 460.6,-256.59 462.69,-255.31"/>
<text text-anchor="middle" x="494.75" y="-275.5" font-family="Arial" font-size="10.00" fill="#0d277a">5.99%</text>
<text text-anchor="middle" x="494.75" y="-263.5" font-family="Arial" font-size="10.00" fill="#0d277a">18156×</text>
</g>
<!-- 213 -->
<g id="node28" class="node">
<title>213</title>
<g id="a_node28"><a xlink:title="/home/tomiguez/repos/2023&#45;2c&#45;tp&#45;tomas&#45;martin&#45;ignacio&#45;3/tlengrep/automata/afnd.py">
<polygon fill="#5ac508" stroke="#5ac508" points="722.62,-252 538.62,-252 538.62,-196 722.62,-196 722.62,-252"/>
<text text-anchor="middle" x="630.62" y="-238.5" font-family="Arial" font-size="10.00" fill="#ffffff">afnd:180:_rename_state_in_transitions</text>
<text text-anchor="middle" x="630.62" y="-226.5" font-family="Arial" font-size="10.00" fill="#ffffff">60.86%</text>
<text text-anchor="middle" x="630.62" y="-214.5" font-family="Arial" font-size="10.00" fill="#ffffff">(45.24%)</text>
<text text-anchor="middle" x="630.62" y="-202.5" font-family="Arial" font-size="10.00" fill="#ffffff">1688775×</text>
</a>
</g>
</g>
<!-- 142&#45;&gt;213 -->
<g id="edge27" class="edge">
<title>142&#45;&gt;213</title>
<path fill="none" stroke="#5ac508" stroke-width="2.43" d="M538.25,-293.75C552.82,-282.9 569.74,-270.31 585.09,-258.89"/>
<polygon fill="#5ac508" stroke="#5ac508" stroke-width="2.43" points="586.33,-261.36 590.96,-254.52 583.07,-256.98 586.33,-261.36"/>
<text text-anchor="middle" x="602" y="-275.5" font-family="Arial" font-size="10.00" fill="#5ac508">60.86%</text>
<text text-anchor="middle" x="602" y="-263.5" font-family="Arial" font-size="10.00" fill="#5ac508">1688775×</text>
</g>
<!-- 114 -->
<g id="node20" class="node">
<title>114</title>
<g id="a_node20"><a xlink:title="/home/tomiguez/repos/2023&#45;2c&#45;tp&#45;tomas&#45;martin&#45;ignacio&#45;3/tlengrep/automata/afd.py">
<polygon fill="#0d347e" stroke="#0d347e" points="247.12,-872 162.12,-872 162.12,-816 247.12,-816 247.12,-872"/>
<text text-anchor="middle" x="204.62" y="-858.5" font-family="Arial" font-size="10.00" fill="#ffffff">afd:21:minimize</text>
<text text-anchor="middle" x="204.62" y="-846.5" font-family="Arial" font-size="10.00" fill="#ffffff">8.66%</text>
<text text-anchor="middle" x="204.62" y="-834.5" font-family="Arial" font-size="10.00" fill="#ffffff">(7.20%)</text>
<text text-anchor="middle" x="204.62" y="-822.5" font-family="Arial" font-size="10.00" fill="#ffffff">267×</text>
</a>
</g>
</g>
<!-- 123 -->
<g id="node21" class="node">
<title>123</title>
<g id="a_node21"><a xlink:title="/home/tomiguez/repos/2023&#45;2c&#45;tp&#45;tomas&#45;martin&#45;ignacio&#45;3/tlengrep/automata/afd.py">
<polygon fill="#0d1274" stroke="#0d1274" points="269,-774 162.25,-774 162.25,-718 269,-718 269,-774"/>
<text text-anchor="middle" x="215.62" y="-760.5" font-family="Arial" font-size="10.00" fill="#ffffff">afd:10:add_transition</text>
<text text-anchor="middle" x="215.62" y="-748.5" font-family="Arial" font-size="10.00" fill="#ffffff">1.32%</text>
<text text-anchor="middle" x="215.62" y="-736.5" font-family="Arial" font-size="10.00" fill="#ffffff">(1.20%)</text>
<text text-anchor="middle" x="215.62" y="-724.5" font-family="Arial" font-size="10.00" fill="#ffffff">2186730×</text>
</a>
</g>
</g>
<!-- 114&#45;&gt;123 -->
<g id="edge16" class="edge">
<title>114&#45;&gt;123</title>
<path fill="none" stroke="#0d0f73" stroke-width="0.5" d="M205.19,-815.73C205.64,-805.44 206.45,-793.65 207.88,-783 208.07,-781.52 208.3,-780.01 208.55,-778.49"/>
<polygon fill="#0d0f73" stroke="#0d0f73" stroke-width="0.5" points="209.73,-778.84 209.12,-775.18 207.32,-778.42 209.73,-778.84"/>
<text text-anchor="middle" x="230" y="-797.5" font-family="Arial" font-size="10.00" fill="#0d0f73">0.54%</text>
<text text-anchor="middle" x="230" y="-785.5" font-family="Arial" font-size="10.00" fill="#0d0f73">1093365×</text>
</g>
<!-- 137 -->
<g id="node22" class="node">
<title>137</title>
<g id="a_node22"><a xlink:title="/home/tomiguez/repos/2023&#45;2c&#45;tp&#45;tomas&#45;martin&#45;ignacio&#45;3/tlengrep/automata/afd.py">
<polygon fill="#0d0f73" stroke="#0d0f73" points="152.75,-774 26.5,-774 26.5,-718 152.75,-718 152.75,-774"/>
<text text-anchor="middle" x="89.62" y="-760.5" font-family="Arial" font-size="10.00" fill="#ffffff">afd:93:_transitions_to_str</text>
<text text-anchor="middle" x="89.62" y="-748.5" font-family="Arial" font-size="10.00" fill="#ffffff">0.56%</text>
<text text-anchor="middle" x="89.62" y="-736.5" font-family="Arial" font-size="10.00" fill="#ffffff">(0.54%)</text>
<text text-anchor="middle" x="89.62" y="-724.5" font-family="Arial" font-size="10.00" fill="#ffffff">52065×</text>
</a>
</g>
</g>
<!-- 114&#45;&gt;137 -->
<g id="edge17" class="edge">
<title>114&#45;&gt;137</title>
<path fill="none" stroke="#0d0f73" stroke-width="0.5" d="M171.98,-815.75C157.41,-803.59 140.21,-789.23 125.3,-776.78"/>
<polygon fill="#0d0f73" stroke="#0d0f73" stroke-width="0.5" points="126.41,-776.11 122.93,-774.81 124.84,-777.99 126.41,-776.11"/>
<text text-anchor="middle" x="177.75" y="-797.5" font-family="Arial" font-size="10.00" fill="#0d0f73">0.56%</text>
<text text-anchor="middle" x="177.75" y="-785.5" font-family="Arial" font-size="10.00" fill="#0d0f73">52065×</text>
</g>
<!-- 115 -->
<g id="node23" class="node">
<title>115</title>
<g id="a_node23"><a xlink:title="/home/tomiguez/repos/2023&#45;2c&#45;tp&#45;tomas&#45;martin&#45;ignacio&#45;3/tlengrep/automata/afnd.py">
<polygon fill="#0d377f" stroke="#0d377f" points="369.38,-872 267.88,-872 267.88,-816 369.38,-816 369.38,-872"/>
<text text-anchor="middle" x="318.62" y="-858.5" font-family="Arial" font-size="10.00" fill="#ffffff">afnd:35:determinize</text>
<text text-anchor="middle" x="318.62" y="-846.5" font-family="Arial" font-size="10.00" fill="#ffffff">9.31%</text>
<text text-anchor="middle" x="318.62" y="-834.5" font-family="Arial" font-size="10.00" fill="#ffffff">(1.04%)</text>
<text text-anchor="middle" x="318.62" y="-822.5" font-family="Arial" font-size="10.00" fill="#ffffff">267×</text>
</a>
</g>
</g>
<!-- 115&#45;&gt;113 -->
<g id="edge18" class="edge">
<title>115&#45;&gt;113</title>
<path fill="none" stroke="#0d277a" stroke-width="0.5" d="M357.22,-815.85C359.65,-813.08 361.83,-810.12 363.62,-807 377.08,-783.63 372.62,-773.96 372.62,-747 372.62,-747 372.62,-747 372.62,-517 372.62,-495.37 374.92,-471.11 377.19,-452.4"/>
<polygon fill="#0d277a" stroke="#0d277a" stroke-width="0.5" points="378.4,-452.62 377.61,-449 375.96,-452.32 378.4,-452.62"/>
<text text-anchor="middle" x="386.5" y="-618.5" font-family="Arial" font-size="10.00" fill="#0d277a">6.04%</text>
<text text-anchor="middle" x="386.5" y="-606.5" font-family="Arial" font-size="10.00" fill="#0d277a">267×</text>
</g>
<!-- 115&#45;&gt;123 -->
<g id="edge19" class="edge">
<title>115&#45;&gt;123</title>
<path fill="none" stroke="#0d1074" stroke-width="0.5" d="M283.58,-815.5C280.26,-812.68 276.97,-809.82 273.88,-807 263.66,-797.7 252.99,-787.02 243.62,-777.28"/>
<polygon fill="#0d1074" stroke="#0d1074" stroke-width="0.5" points="244.58,-776.51 241.28,-774.83 242.81,-778.21 244.58,-776.51"/>
<text text-anchor="middle" x="296" y="-797.5" font-family="Arial" font-size="10.00" fill="#0d1074">0.78%</text>
<text text-anchor="middle" x="296" y="-785.5" font-family="Arial" font-size="10.00" fill="#0d1074">1093365×</text>
</g>
<!-- 143 -->
<g id="node24" class="node">
<title>143</title>
<g id="a_node24"><a xlink:title="/home/tomiguez/repos/2023&#45;2c&#45;tp&#45;tomas&#45;martin&#45;ignacio&#45;3/tlengrep/automata/afnd.py">
<polygon fill="#0d1274" stroke="#0d1274" points="358.88,-774 278.38,-774 278.38,-718 358.88,-718 358.88,-774"/>
<text text-anchor="middle" x="318.62" y="-760.5" font-family="Arial" font-size="10.00" fill="#ffffff">afnd:86:_move</text>
<text text-anchor="middle" x="318.62" y="-748.5" font-family="Arial" font-size="10.00" fill="#ffffff">1.32%</text>
<text text-anchor="middle" x="318.62" y="-736.5" font-family="Arial" font-size="10.00" fill="#ffffff">(0.75%)</text>
<text text-anchor="middle" x="318.62" y="-724.5" font-family="Arial" font-size="10.00" fill="#ffffff">1093365×</text>
</a>
</g>
</g>
<!-- 115&#45;&gt;143 -->
<g id="edge20" class="edge">
<title>115&#45;&gt;143</title>
<path fill="none" stroke="#0d1274" stroke-width="0.5" d="M318.62,-815.75C318.62,-804.09 318.62,-790.42 318.62,-778.35"/>
<polygon fill="#0d1274" stroke="#0d1274" stroke-width="0.5" points="319.85,-778.58 318.63,-775.08 317.4,-778.58 319.85,-778.58"/>
<text text-anchor="middle" x="340" y="-797.5" font-family="Arial" font-size="10.00" fill="#0d1274">1.32%</text>
<text text-anchor="middle" x="340" y="-785.5" font-family="Arial" font-size="10.00" fill="#0d1274">1093365×</text>
</g>
<!-- 202 -->
<g id="node29" class="node">
<title>202</title>
<g id="a_node29"><a xlink:title="/home/tomiguez/repos/2023&#45;2c&#45;tp&#45;tomas&#45;martin&#45;ignacio&#45;3/tlengrep/automata/afnd.py">
<polygon fill="#0d0f74" stroke="#0d0f74" points="354.38,-644 258.88,-644 258.88,-588 354.38,-588 354.38,-644"/>
<text text-anchor="middle" x="306.62" y="-630.5" font-family="Arial" font-size="10.00" fill="#ffffff">afnd:94:_l_closure</text>
<text text-anchor="middle" x="306.62" y="-618.5" font-family="Arial" font-size="10.00" fill="#ffffff">0.62%</text>
<text text-anchor="middle" x="306.62" y="-606.5" font-family="Arial" font-size="10.00" fill="#ffffff">(0.58%)</text>
<text text-anchor="middle" x="306.62" y="-594.5" font-family="Arial" font-size="10.00" fill="#ffffff">1093632×</text>
</a>
</g>
</g>
<!-- 143&#45;&gt;202 -->
<g id="edge28" class="edge">
<title>143&#45;&gt;202</title>
<path fill="none" stroke="#0d0f73" stroke-width="0.5" d="M316.05,-717.54C314.15,-697.29 311.57,-669.71 309.58,-648.55"/>
<polygon fill="#0d0f73" stroke="#0d0f73" stroke-width="0.5" points="310.81,-648.54 309.27,-645.17 308.37,-648.77 310.81,-648.54"/>
<text text-anchor="middle" x="336" y="-683.5" font-family="Arial" font-size="10.00" fill="#0d0f73">0.56%</text>
<text text-anchor="middle" x="336" y="-671.5" font-family="Arial" font-size="10.00" fill="#0d0f73">1093365×</text>
</g>
<!-- 120&#45;&gt;114 -->
<g id="edge22" class="edge">
<title>120&#45;&gt;114</title>
<path fill="none" stroke="#0d347e" stroke-width="0.5" d="M286.26,-913.75C271.82,-901.59 254.77,-887.23 239.99,-874.78"/>
<polygon fill="#0d347e" stroke="#0d347e" stroke-width="0.5" points="241.11,-874.13 237.65,-872.81 239.54,-876 241.11,-874.13"/>
<text text-anchor="middle" x="289.5" y="-895.5" font-family="Arial" font-size="10.00" fill="#0d347e">8.66%</text>
<text text-anchor="middle" x="289.5" y="-883.5" font-family="Arial" font-size="10.00" fill="#0d347e">267×</text>
</g>
<!-- 120&#45;&gt;115 -->
<g id="edge23" class="edge">
<title>120&#45;&gt;115</title>
<path fill="none" stroke="#0d377f" stroke-width="0.5" d="M318.62,-913.75C318.62,-902.09 318.62,-888.42 318.62,-876.35"/>
<polygon fill="#0d377f" stroke="#0d377f" stroke-width="0.5" points="319.85,-876.58 318.63,-873.08 317.4,-876.58 319.85,-876.58"/>
<text text-anchor="middle" x="332.5" y="-895.5" font-family="Arial" font-size="10.00" fill="#0d377f">9.31%</text>
<text text-anchor="middle" x="332.5" y="-883.5" font-family="Arial" font-size="10.00" fill="#0d377f">267×</text>
</g>
<!-- 145 -->
<g id="node26" class="node">
<title>145</title>
<g id="a_node26"><a xlink:title="/home/tomiguez/repos/2023&#45;2c&#45;tp&#45;tomas&#45;martin&#45;ignacio&#45;3/tlengrep/regex/__init__.py">
<polygon fill="#e4a704" stroke="#e4a704" points="490.12,-872 387.12,-872 387.12,-816 490.12,-816 490.12,-872"/>
<text text-anchor="middle" x="438.62" y="-858.5" font-family="Arial" font-size="10.00" fill="#ffffff">__init__:110:to_afnd</text>
<text text-anchor="middle" x="438.62" y="-846.5" font-family="Arial" font-size="10.00" fill="#ffffff">81.80%</text>
<text text-anchor="middle" x="438.62" y="-834.5" font-family="Arial" font-size="10.00" fill="#ffffff">(0.00%)</text>
<text text-anchor="middle" x="438.62" y="-822.5" font-family="Arial" font-size="10.00" fill="#ffffff">267×</text>
</a>
</g>
</g>
<!-- 120&#45;&gt;145 -->
<g id="edge24" class="edge">
<title>120&#45;&gt;145</title>
<path fill="none" stroke="#e4a704" stroke-width="3.27" d="M352.69,-913.75C365.49,-903.51 380.23,-891.72 393.85,-880.82"/>
<polygon fill="#e4a704" stroke="#e4a704" stroke-width="3.27" points="395.55,-883.49 400.61,-875.41 391.61,-878.58 395.55,-883.49"/>
<text text-anchor="middle" x="409.12" y="-895.5" font-family="Arial" font-size="10.00" fill="#e4a704">81.80%</text>
<text text-anchor="middle" x="409.12" y="-883.5" font-family="Arial" font-size="10.00" fill="#e4a704">267×</text>
</g>
<!-- 145&#45;&gt;102 -->
<g id="edge29" class="edge">
<title>145&#45;&gt;102</title>
<path fill="none" stroke="#dec305" stroke-width="3.13" d="M438.62,-815.75C438.62,-807.03 438.62,-797.19 438.62,-787.73"/>
<polygon fill="#dec305" stroke="#dec305" stroke-width="3.13" points="441.71,-787.86 438.63,-779.06 435.55,-787.86 441.71,-787.86"/>
<text text-anchor="middle" x="455.12" y="-797.5" font-family="Arial" font-size="10.00" fill="#dec305">78.16%</text>
<text text-anchor="middle" x="455.12" y="-785.5" font-family="Arial" font-size="10.00" fill="#dec305">267×</text>
</g>
<!-- 145&#45;&gt;112 -->
<g id="edge30" class="edge">
<title>145&#45;&gt;112</title>
<path fill="none" stroke="#0d1c77" stroke-width="0.5" d="M490.58,-822.85C511.62,-811.8 533.72,-795.83 545.62,-774 555.58,-755.74 554.64,-732.26 551.3,-713.6"/>
<polygon fill="#0d1c77" stroke="#0d1c77" stroke-width="0.5" points="552.51,-713.4 550.65,-710.19 550.11,-713.86 552.51,-713.4"/>
<text text-anchor="middle" x="552.5" y="-797.5" font-family="Arial" font-size="10.00" fill="#0d1c77">3.64%</text>
<text text-anchor="middle" x="552.5" y="-785.5" font-family="Arial" font-size="10.00" fill="#0d1c77">267×</text>
</g>
<!-- 370 -->
<g id="node31" class="node">
<title>370</title>
<g id="a_node31"><a xlink:title="/usr/lib/python3.11/enum.py">
<polygon fill="#0c5887" stroke="#0c5887" points="685.12,-154 576.12,-154 576.12,-98 685.12,-98 685.12,-154"/>
<text text-anchor="middle" x="630.62" y="-140.5" font-family="Arial" font-size="10.00" fill="#ffffff">enum:1231:__hash__</text>
<text text-anchor="middle" x="630.62" y="-128.5" font-family="Arial" font-size="10.00" fill="#ffffff">15.42%</text>
<text text-anchor="middle" x="630.62" y="-116.5" font-family="Arial" font-size="10.00" fill="#ffffff">(11.37%)</text>
<text text-anchor="middle" x="630.62" y="-104.5" font-family="Arial" font-size="10.00" fill="#ffffff">72174376×</text>
</a>
</g>
</g>
<!-- 213&#45;&gt;370 -->
<g id="edge33" class="edge">
<title>213&#45;&gt;370</title>
<path fill="none" stroke="#0c5887" stroke-width="0.61" d="M630.62,-195.75C630.62,-184.3 630.62,-170.89 630.62,-158.98"/>
<polygon fill="#0c5887" stroke="#0c5887" stroke-width="0.61" points="631.99,-159.14 630.63,-155.24 629.26,-159.14 631.99,-159.14"/>
<text text-anchor="middle" x="654.62" y="-177.5" font-family="Arial" font-size="10.00" fill="#0c5887">15.36%</text>
<text text-anchor="middle" x="654.62" y="-165.5" font-family="Arial" font-size="10.00" fill="#0c5887">71938611×</text>
</g>
<!-- 292&#45;&gt;44 -->
<g id="edge35" class="edge">
<title>292&#45;&gt;44</title>
<path fill="none" stroke="#ff0000" stroke-width="4" d="M105.34,-1403.75C112.94,-1394.63 121.57,-1384.27 129.78,-1374.41"/>
<polygon fill="#ff0000" stroke="#ff0000" stroke-width="4" points="132.27,-1376.89 135.98,-1366.97 126.89,-1372.41 132.27,-1376.89"/>
<text text-anchor="middle" x="151.75" y="-1385.5" font-family="Arial" font-size="10.00" fill="#ff0000">100.00%</text>
<text text-anchor="middle" x="151.75" y="-1373.5" font-family="Arial" font-size="10.00" fill="#ff0000">11×</text>
</g>
<!-- 429 -->
<g id="node32" class="node">
<title>429</title>
<g id="a_node32"><a xlink:title="~">
<polygon fill="#0d1e78" stroke="#0d1e78" points="714,-56 547.25,-56 547.25,0 714,0 714,-56"/>
<text text-anchor="middle" x="630.62" y="-42.5" font-family="Arial" font-size="10.00" fill="#ffffff">~:0:&lt;built&#45;in method builtins.hash&gt;</text>
<text text-anchor="middle" x="630.62" y="-30.5" font-family="Arial" font-size="10.00" fill="#ffffff">4.05%</text>
<text text-anchor="middle" x="630.62" y="-18.5" font-family="Arial" font-size="10.00" fill="#ffffff">(4.05%)</text>
<text text-anchor="middle" x="630.62" y="-6.5" font-family="Arial" font-size="10.00" fill="#ffffff">72174416×</text>
</a>
</g>
</g>
<!-- 370&#45;&gt;429 -->
<g id="edge36" class="edge">
<title>370&#45;&gt;429</title>
<path fill="none" stroke="#0d1e78" stroke-width="0.5" d="M630.62,-97.75C630.62,-86.09 630.62,-72.42 630.62,-60.35"/>
<polygon fill="#0d1e78" stroke="#0d1e78" stroke-width="0.5" points="631.85,-60.58 630.63,-57.08 629.4,-60.58 631.85,-60.58"/>
<text text-anchor="middle" x="654.62" y="-79.5" font-family="Arial" font-size="10.00" fill="#0d1e78">4.05%</text>
<text text-anchor="middle" x="654.62" y="-67.5" font-family="Arial" font-size="10.00" fill="#0d1e78">72174376×</text>
</g>
</g>
</svg>
