<?xml version="1.0" encoding="UTF-8" standalone="no"?>
<!DOCTYPE svg PUBLIC "-//W3C//DTD SVG 1.1//EN"
 "http://www.w3.org/Graphics/SVG/1.1/DTD/svg11.dtd">
<!-- Generated by graphviz version 9.0.0 (0)
 -->
<!-- Pages: 1 -->
<svg width="559pt" height="2056pt"
 viewBox="0.00 0.00 558.75 2056.00" xmlns="http://www.w3.org/2000/svg" xmlns:xlink="http://www.w3.org/1999/xlink">
<g id="graph0" class="graph" transform="scale(1 1) rotate(0) translate(4 2052)">
<polygon fill="white" stroke="none" points="-4,4 -4,-2052 554.75,-2052 554.75,4 -4,4"/>
<!-- 9 -->
<g id="node1" class="node">
<title>9</title>
<g id="a_node1"><a xlink:title="/home/tomiguez/repos/2023&#45;2c&#45;tp&#45;tomas&#45;martin&#45;ignacio&#45;3/tlengrep/venv/lib/python3.11/site&#45;packages/_pytest/runner.py">
<polygon fill="#ff0000" stroke="#ff0000" points="522.12,-2048 356.88,-2048 356.88,-1992 522.12,-1992 522.12,-2048"/>
<text text-anchor="middle" x="439.5" y="-2034.5" font-family="Arial" font-size="10.00" fill="#ffffff">runner:111:pytest_runtest_protocol</text>
<text text-anchor="middle" x="439.5" y="-2022.5" font-family="Arial" font-size="10.00" fill="#ffffff">100.00%</text>
<text text-anchor="middle" x="439.5" y="-2010.5" font-family="Arial" font-size="10.00" fill="#ffffff">(0.00%)</text>
<text text-anchor="middle" x="439.5" y="-1998.5" font-family="Arial" font-size="10.00" fill="#ffffff">185×</text>
</a>
</g>
</g>
<!-- 69 -->
<g id="node2" class="node">
<title>69</title>
<g id="a_node2"><a xlink:title="/home/tomiguez/repos/2023&#45;2c&#45;tp&#45;tomas&#45;martin&#45;ignacio&#45;3/tlengrep/venv/lib/python3.11/site&#45;packages/_pytest/runner.py">
<polygon fill="#ff0000" stroke="#ff0000" points="503.75,-1950 375.25,-1950 375.25,-1894 503.75,-1894 503.75,-1950"/>
<text text-anchor="middle" x="439.5" y="-1936.5" font-family="Arial" font-size="10.00" fill="#ffffff">runner:119:runtestprotocol</text>
<text text-anchor="middle" x="439.5" y="-1924.5" font-family="Arial" font-size="10.00" fill="#ffffff">100.00%</text>
<text text-anchor="middle" x="439.5" y="-1912.5" font-family="Arial" font-size="10.00" fill="#ffffff">(0.00%)</text>
<text text-anchor="middle" x="439.5" y="-1900.5" font-family="Arial" font-size="10.00" fill="#ffffff">185×</text>
</a>
</g>
</g>
<!-- 9&#45;&gt;69 -->
<g id="edge1" class="edge">
<title>9&#45;&gt;69</title>
<path fill="none" stroke="#ff0000" stroke-width="4" d="M439.5,-1991.75C439.5,-1983.74 439.5,-1974.78 439.5,-1966.04"/>
<polygon fill="#ff0000" stroke="#ff0000" stroke-width="4" points="443,-1966.38 439.5,-1956.38 436,-1966.38 443,-1966.38"/>
<text text-anchor="middle" x="458.62" y="-1973.5" font-family="Arial" font-size="10.00" fill="#ff0000">100.00%</text>
<text text-anchor="middle" x="458.62" y="-1961.5" font-family="Arial" font-size="10.00" fill="#ff0000">185×</text>
</g>
<!-- 174 -->
<g id="node11" class="node">
<title>174</title>
<g id="a_node11"><a xlink:title="/home/tomiguez/repos/2023&#45;2c&#45;tp&#45;tomas&#45;martin&#45;ignacio&#45;3/tlengrep/venv/lib/python3.11/site&#45;packages/_pytest/runner.py">
<polygon fill="#ff0000" stroke="#ff0000" points="504.88,-1852 374.12,-1852 374.12,-1796 504.88,-1796 504.88,-1852"/>
<text text-anchor="middle" x="439.5" y="-1838.5" font-family="Arial" font-size="10.00" fill="#ffffff">runner:219:call_and_report</text>
<text text-anchor="middle" x="439.5" y="-1826.5" font-family="Arial" font-size="10.00" fill="#ffffff">100.00%</text>
<text text-anchor="middle" x="439.5" y="-1814.5" font-family="Arial" font-size="10.00" fill="#ffffff">(0.00%)</text>
<text text-anchor="middle" x="439.5" y="-1802.5" font-family="Arial" font-size="10.00" fill="#ffffff">554×</text>
</a>
</g>
</g>
<!-- 69&#45;&gt;174 -->
<g id="edge8" class="edge">
<title>69&#45;&gt;174</title>
<path fill="none" stroke="#ff0000" stroke-width="4" d="M439.5,-1893.75C439.5,-1885.74 439.5,-1876.78 439.5,-1868.04"/>
<polygon fill="#ff0000" stroke="#ff0000" stroke-width="4" points="443,-1868.38 439.5,-1858.38 436,-1868.38 443,-1868.38"/>
<text text-anchor="middle" x="458.62" y="-1875.5" font-family="Arial" font-size="10.00" fill="#ff0000">100.00%</text>
<text text-anchor="middle" x="458.62" y="-1863.5" font-family="Arial" font-size="10.00" fill="#ff0000">554×</text>
</g>
<!-- 37 -->
<g id="node3" class="node">
<title>37</title>
<g id="a_node3"><a xlink:title="/home/tomiguez/repos/2023&#45;2c&#45;tp&#45;tomas&#45;martin&#45;ignacio&#45;3/tlengrep/venv/lib/python3.11/site&#45;packages/pluggy/_callers.py">
<polygon fill="#ff0000" stroke="#ff0000" points="449.25,-1264 341.75,-1264 341.75,-1208 449.25,-1208 449.25,-1264"/>
<text text-anchor="middle" x="395.5" y="-1250.5" font-family="Arial" font-size="10.00" fill="#ffffff">_callers:27:_multicall</text>
<text text-anchor="middle" x="395.5" y="-1238.5" font-family="Arial" font-size="10.00" fill="#ffffff">99.99%</text>
<text text-anchor="middle" x="395.5" y="-1226.5" font-family="Arial" font-size="10.00" fill="#ffffff">(0.00%)</text>
<text text-anchor="middle" x="395.5" y="-1214.5" font-family="Arial" font-size="10.00" fill="#ffffff">3505×</text>
</a>
</g>
</g>
<!-- 64 -->
<g id="node4" class="node">
<title>64</title>
<g id="a_node4"><a xlink:title="/home/tomiguez/repos/2023&#45;2c&#45;tp&#45;tomas&#45;martin&#45;ignacio&#45;3/tlengrep/venv/lib/python3.11/site&#45;packages/_pytest/runner.py">
<polygon fill="#ff0000" stroke="#ff0000" points="469.12,-1166 321.88,-1166 321.88,-1110 469.12,-1110 469.12,-1166"/>
<text text-anchor="middle" x="395.5" y="-1152.5" font-family="Arial" font-size="10.00" fill="#ffffff">runner:160:pytest_runtest_call</text>
<text text-anchor="middle" x="395.5" y="-1140.5" font-family="Arial" font-size="10.00" fill="#ffffff">99.97%</text>
<text text-anchor="middle" x="395.5" y="-1128.5" font-family="Arial" font-size="10.00" fill="#ffffff">(0.00%)</text>
<text text-anchor="middle" x="395.5" y="-1116.5" font-family="Arial" font-size="10.00" fill="#ffffff">185×</text>
</a>
</g>
</g>
<!-- 37&#45;&gt;64 -->
<g id="edge2" class="edge">
<title>37&#45;&gt;64</title>
<path fill="none" stroke="#ff0000" stroke-width="4" d="M395.5,-1207.75C395.5,-1199.74 395.5,-1190.78 395.5,-1182.04"/>
<polygon fill="#ff0000" stroke="#ff0000" stroke-width="4" points="399,-1182.38 395.5,-1172.38 392,-1182.38 399,-1182.38"/>
<text text-anchor="middle" x="412" y="-1189.5" font-family="Arial" font-size="10.00" fill="#ff0000">99.97%</text>
<text text-anchor="middle" x="412" y="-1177.5" font-family="Arial" font-size="10.00" fill="#ff0000">185×</text>
</g>
<!-- 74 -->
<g id="node5" class="node">
<title>74</title>
<g id="a_node5"><a xlink:title="/home/tomiguez/repos/2023&#45;2c&#45;tp&#45;tomas&#45;martin&#45;ignacio&#45;3/tlengrep/venv/lib/python3.11/site&#45;packages/_pytest/python.py">
<polygon fill="#ff0000" stroke="#ff0000" points="312.88,-1166 164.12,-1166 164.12,-1110 312.88,-1110 312.88,-1166"/>
<text text-anchor="middle" x="238.5" y="-1152.5" font-family="Arial" font-size="10.00" fill="#ffffff">python:187:pytest_pyfunc_call</text>
<text text-anchor="middle" x="238.5" y="-1140.5" font-family="Arial" font-size="10.00" fill="#ffffff">99.97%</text>
<text text-anchor="middle" x="238.5" y="-1128.5" font-family="Arial" font-size="10.00" fill="#ffffff">(0.00%)</text>
<text text-anchor="middle" x="238.5" y="-1116.5" font-family="Arial" font-size="10.00" fill="#ffffff">185×</text>
</a>
</g>
</g>
<!-- 37&#45;&gt;74 -->
<g id="edge3" class="edge">
<title>37&#45;&gt;74</title>
<path fill="none" stroke="#ff0000" stroke-width="4" d="M350.93,-1207.75C334.18,-1197.51 314.88,-1185.7 297.05,-1174.8"/>
<polygon fill="#ff0000" stroke="#ff0000" stroke-width="4" points="298.98,-1171.88 288.62,-1169.65 295.32,-1177.85 298.98,-1171.88"/>
<text text-anchor="middle" x="353" y="-1189.5" font-family="Arial" font-size="10.00" fill="#ff0000">99.97%</text>
<text text-anchor="middle" x="353" y="-1177.5" font-family="Arial" font-size="10.00" fill="#ff0000">185×</text>
</g>
<!-- 173 -->
<g id="node10" class="node">
<title>173</title>
<g id="a_node10"><a xlink:title="/home/tomiguez/repos/2023&#45;2c&#45;tp&#45;tomas&#45;martin&#45;ignacio&#45;3/tlengrep/venv/lib/python3.11/site&#45;packages/_pytest/python.py">
<polygon fill="#ff0000" stroke="#ff0000" points="490.62,-1068 388.38,-1068 388.38,-1012 490.62,-1012 490.62,-1068"/>
<text text-anchor="middle" x="439.5" y="-1054.5" font-family="Arial" font-size="10.00" fill="#ffffff">python:1790:runtest</text>
<text text-anchor="middle" x="439.5" y="-1042.5" font-family="Arial" font-size="10.00" fill="#ffffff">99.97%</text>
<text text-anchor="middle" x="439.5" y="-1030.5" font-family="Arial" font-size="10.00" fill="#ffffff">(0.00%)</text>
<text text-anchor="middle" x="439.5" y="-1018.5" font-family="Arial" font-size="10.00" fill="#ffffff">185×</text>
</a>
</g>
</g>
<!-- 64&#45;&gt;173 -->
<g id="edge7" class="edge">
<title>64&#45;&gt;173</title>
<path fill="none" stroke="#ff0000" stroke-width="4" d="M407.99,-1109.75C411.85,-1101.34 416.18,-1091.87 420.38,-1082.72"/>
<polygon fill="#ff0000" stroke="#ff0000" stroke-width="4" points="423.47,-1084.37 424.46,-1073.82 417.11,-1081.46 423.47,-1084.37"/>
<text text-anchor="middle" x="440" y="-1091.5" font-family="Arial" font-size="10.00" fill="#ff0000">99.97%</text>
<text text-anchor="middle" x="440" y="-1079.5" font-family="Arial" font-size="10.00" fill="#ff0000">185×</text>
</g>
<!-- 105 -->
<g id="node12" class="node">
<title>105</title>
<g id="a_node12"><a xlink:title="/home/tomiguez/repos/2023&#45;2c&#45;tp&#45;tomas&#45;martin&#45;ignacio&#45;3/tlengrep/tests/test_parser.py">
<polygon fill="#ff0000" stroke="#ff0000" points="331.25,-1068 145.75,-1068 145.75,-1012 331.25,-1012 331.25,-1068"/>
<text text-anchor="middle" x="238.5" y="-1054.5" font-family="Arial" font-size="10.00" fill="#ffffff">test_parser:267:test_parse_and_match</text>
<text text-anchor="middle" x="238.5" y="-1042.5" font-family="Arial" font-size="10.00" fill="#ffffff">99.97%</text>
<text text-anchor="middle" x="238.5" y="-1030.5" font-family="Arial" font-size="10.00" fill="#ffffff">(0.01%)</text>
<text text-anchor="middle" x="238.5" y="-1018.5" font-family="Arial" font-size="10.00" fill="#ffffff">185×</text>
</a>
</g>
</g>
<!-- 74&#45;&gt;105 -->
<g id="edge9" class="edge">
<title>74&#45;&gt;105</title>
<path fill="none" stroke="#ff0000" stroke-width="4" d="M238.5,-1109.75C238.5,-1101.74 238.5,-1092.78 238.5,-1084.04"/>
<polygon fill="#ff0000" stroke="#ff0000" stroke-width="4" points="242,-1084.38 238.5,-1074.38 235,-1084.38 242,-1084.38"/>
<text text-anchor="middle" x="255" y="-1091.5" font-family="Arial" font-size="10.00" fill="#ff0000">99.97%</text>
<text text-anchor="middle" x="255" y="-1079.5" font-family="Arial" font-size="10.00" fill="#ff0000">185×</text>
</g>
<!-- 38 -->
<g id="node6" class="node">
<title>38</title>
<g id="a_node6"><a xlink:title="/home/tomiguez/repos/2023&#45;2c&#45;tp&#45;tomas&#45;martin&#45;ignacio&#45;3/tlengrep/venv/lib/python3.11/site&#45;packages/pluggy/_manager.py">
<polygon fill="#ff0000" stroke="#ff0000" points="466.38,-1362 338.62,-1362 338.62,-1306 466.38,-1306 466.38,-1362"/>
<text text-anchor="middle" x="402.5" y="-1348.5" font-family="Arial" font-size="10.00" fill="#ffffff">_manager:106:_hookexec</text>
<text text-anchor="middle" x="402.5" y="-1336.5" font-family="Arial" font-size="10.00" fill="#ffffff">99.99%</text>
<text text-anchor="middle" x="402.5" y="-1324.5" font-family="Arial" font-size="10.00" fill="#ffffff">(0.00%)</text>
<text text-anchor="middle" x="402.5" y="-1312.5" font-family="Arial" font-size="10.00" fill="#ffffff">3505×</text>
</a>
</g>
</g>
<!-- 38&#45;&gt;37 -->
<g id="edge4" class="edge">
<title>38&#45;&gt;37</title>
<path fill="none" stroke="#ff0000" stroke-width="4" d="M400.51,-1305.75C399.93,-1297.74 399.28,-1288.78 398.64,-1280.04"/>
<polygon fill="#ff0000" stroke="#ff0000" stroke-width="4" points="402.15,-1280.08 397.93,-1270.36 395.17,-1280.59 402.15,-1280.08"/>
<text text-anchor="middle" x="417" y="-1287.5" font-family="Arial" font-size="10.00" fill="#ff0000">99.99%</text>
<text text-anchor="middle" x="417" y="-1275.5" font-family="Arial" font-size="10.00" fill="#ff0000">2029×</text>
</g>
<!-- 54 -->
<g id="node7" class="node">
<title>54</title>
<g id="a_node7"><a xlink:title="/home/tomiguez/repos/2023&#45;2c&#45;tp&#45;tomas&#45;martin&#45;ignacio&#45;3/tlengrep/venv/lib/python3.11/site&#45;packages/_pytest/runner.py">
<polygon fill="#ff0000" stroke="#ff0000" points="491.75,-1656 387.25,-1656 387.25,-1600 491.75,-1600 491.75,-1656"/>
<text text-anchor="middle" x="439.5" y="-1642.5" font-family="Arial" font-size="10.00" fill="#ffffff">runner:318:from_call</text>
<text text-anchor="middle" x="439.5" y="-1630.5" font-family="Arial" font-size="10.00" fill="#ffffff">99.99%</text>
<text text-anchor="middle" x="439.5" y="-1618.5" font-family="Arial" font-size="10.00" fill="#ffffff">(0.00%)</text>
<text text-anchor="middle" x="439.5" y="-1606.5" font-family="Arial" font-size="10.00" fill="#ffffff">554×</text>
</a>
</g>
</g>
<!-- 211 -->
<g id="node8" class="node">
<title>211</title>
<g id="a_node8"><a xlink:title="/home/tomiguez/repos/2023&#45;2c&#45;tp&#45;tomas&#45;martin&#45;ignacio&#45;3/tlengrep/venv/lib/python3.11/site&#45;packages/_pytest/runner.py">
<polygon fill="#ff0000" stroke="#ff0000" points="493.62,-1558 385.38,-1558 385.38,-1502 493.62,-1502 493.62,-1558"/>
<text text-anchor="middle" x="439.5" y="-1544.5" font-family="Arial" font-size="10.00" fill="#ffffff">runner:262:&lt;lambda&gt;</text>
<text text-anchor="middle" x="439.5" y="-1532.5" font-family="Arial" font-size="10.00" fill="#ffffff">99.99%</text>
<text text-anchor="middle" x="439.5" y="-1520.5" font-family="Arial" font-size="10.00" fill="#ffffff">(0.00%)</text>
<text text-anchor="middle" x="439.5" y="-1508.5" font-family="Arial" font-size="10.00" fill="#ffffff">554×</text>
</a>
</g>
</g>
<!-- 54&#45;&gt;211 -->
<g id="edge5" class="edge">
<title>54&#45;&gt;211</title>
<path fill="none" stroke="#ff0000" stroke-width="4" d="M439.5,-1599.75C439.5,-1591.74 439.5,-1582.78 439.5,-1574.04"/>
<polygon fill="#ff0000" stroke="#ff0000" stroke-width="4" points="443,-1574.38 439.5,-1564.38 436,-1574.38 443,-1574.38"/>
<text text-anchor="middle" x="456" y="-1581.5" font-family="Arial" font-size="10.00" fill="#ff0000">99.99%</text>
<text text-anchor="middle" x="456" y="-1569.5" font-family="Arial" font-size="10.00" fill="#ff0000">554×</text>
</g>
<!-- 278 -->
<g id="node29" class="node">
<title>278</title>
<g id="a_node29"><a xlink:title="/home/tomiguez/repos/2023&#45;2c&#45;tp&#45;tomas&#45;martin&#45;ignacio&#45;3/tlengrep/venv/lib/python3.11/site&#45;packages/pluggy/_hooks.py">
<polygon fill="#ff0000" stroke="#ff0000" points="492.12,-1460 386.88,-1460 386.88,-1404 492.12,-1404 492.12,-1460"/>
<text text-anchor="middle" x="439.5" y="-1446.5" font-family="Arial" font-size="10.00" fill="#ffffff">_hooks:479:__call__</text>
<text text-anchor="middle" x="439.5" y="-1434.5" font-family="Arial" font-size="10.00" fill="#ffffff">99.99%</text>
<text text-anchor="middle" x="439.5" y="-1422.5" font-family="Arial" font-size="10.00" fill="#ffffff">(0.00%)</text>
<text text-anchor="middle" x="439.5" y="-1410.5" font-family="Arial" font-size="10.00" fill="#ffffff">3505×</text>
</a>
</g>
</g>
<!-- 211&#45;&gt;278 -->
<g id="edge37" class="edge">
<title>211&#45;&gt;278</title>
<path fill="none" stroke="#ff0000" stroke-width="4" d="M439.5,-1501.75C439.5,-1493.74 439.5,-1484.78 439.5,-1476.04"/>
<polygon fill="#ff0000" stroke="#ff0000" stroke-width="4" points="443,-1476.38 439.5,-1466.38 436,-1476.38 443,-1476.38"/>
<text text-anchor="middle" x="456" y="-1483.5" font-family="Arial" font-size="10.00" fill="#ff0000">99.99%</text>
<text text-anchor="middle" x="456" y="-1471.5" font-family="Arial" font-size="10.00" fill="#ff0000">554×</text>
</g>
<!-- 55 -->
<g id="node9" class="node">
<title>55</title>
<g id="a_node9"><a xlink:title="/home/tomiguez/repos/2023&#45;2c&#45;tp&#45;tomas&#45;martin&#45;ignacio&#45;3/tlengrep/venv/lib/python3.11/site&#45;packages/_pytest/runner.py">
<polygon fill="#ff0000" stroke="#ff0000" points="510.12,-1754 368.88,-1754 368.88,-1698 510.12,-1698 510.12,-1754"/>
<text text-anchor="middle" x="439.5" y="-1740.5" font-family="Arial" font-size="10.00" fill="#ffffff">runner:247:call_runtest_hook</text>
<text text-anchor="middle" x="439.5" y="-1728.5" font-family="Arial" font-size="10.00" fill="#ffffff">99.99%</text>
<text text-anchor="middle" x="439.5" y="-1716.5" font-family="Arial" font-size="10.00" fill="#ffffff">(0.00%)</text>
<text text-anchor="middle" x="439.5" y="-1704.5" font-family="Arial" font-size="10.00" fill="#ffffff">554×</text>
</a>
</g>
</g>
<!-- 55&#45;&gt;54 -->
<g id="edge6" class="edge">
<title>55&#45;&gt;54</title>
<path fill="none" stroke="#ff0000" stroke-width="4" d="M439.5,-1697.75C439.5,-1689.74 439.5,-1680.78 439.5,-1672.04"/>
<polygon fill="#ff0000" stroke="#ff0000" stroke-width="4" points="443,-1672.38 439.5,-1662.38 436,-1672.38 443,-1672.38"/>
<text text-anchor="middle" x="456" y="-1679.5" font-family="Arial" font-size="10.00" fill="#ff0000">99.99%</text>
<text text-anchor="middle" x="456" y="-1667.5" font-family="Arial" font-size="10.00" fill="#ff0000">554×</text>
</g>
<!-- 173&#45;&gt;278 -->
<g id="edge35" class="edge">
<title>173&#45;&gt;278</title>
<path fill="none" stroke="#ff0000" stroke-width="4" d="M459.7,-1068.48C471.26,-1086.91 483.5,-1112.25 483.5,-1137 483.5,-1335 483.5,-1335 483.5,-1335 483.5,-1354.14 476.18,-1373.64 467.51,-1390.02"/>
<polygon fill="#ff0000" stroke="#ff0000" stroke-width="4" points="464.71,-1387.87 462.73,-1398.28 470.77,-1391.38 464.71,-1387.87"/>
<text text-anchor="middle" x="500" y="-1238.5" font-family="Arial" font-size="10.00" fill="#ff0000">99.97%</text>
<text text-anchor="middle" x="500" y="-1226.5" font-family="Arial" font-size="10.00" fill="#ff0000">185×</text>
</g>
<!-- 174&#45;&gt;55 -->
<g id="edge36" class="edge">
<title>174&#45;&gt;55</title>
<path fill="none" stroke="#ff0000" stroke-width="4" d="M439.5,-1795.75C439.5,-1787.74 439.5,-1778.78 439.5,-1770.04"/>
<polygon fill="#ff0000" stroke="#ff0000" stroke-width="4" points="443,-1770.38 439.5,-1760.38 436,-1770.38 443,-1770.38"/>
<text text-anchor="middle" x="456" y="-1777.5" font-family="Arial" font-size="10.00" fill="#ff0000">99.99%</text>
<text text-anchor="middle" x="456" y="-1765.5" font-family="Arial" font-size="10.00" fill="#ff0000">554×</text>
</g>
<!-- 103 -->
<g id="node22" class="node">
<title>103</title>
<g id="a_node22"><a xlink:title="/home/tomiguez/repos/2023&#45;2c&#45;tp&#45;tomas&#45;martin&#45;ignacio&#45;3/tlengrep/regex/__init__.py">
<polygon fill="#ff0100" stroke="#ff0100" points="285.12,-970 191.88,-970 191.88,-914 285.12,-914 285.12,-970"/>
<text text-anchor="middle" x="238.5" y="-956.5" font-family="Arial" font-size="10.00" fill="#ffffff">__init__:19:match</text>
<text text-anchor="middle" x="238.5" y="-944.5" font-family="Arial" font-size="10.00" fill="#ffffff">99.95%</text>
<text text-anchor="middle" x="238.5" y="-932.5" font-family="Arial" font-size="10.00" fill="#ffffff">(0.36%)</text>
<text text-anchor="middle" x="238.5" y="-920.5" font-family="Arial" font-size="10.00" fill="#ffffff">49353×</text>
</a>
</g>
</g>
<!-- 105&#45;&gt;103 -->
<g id="edge23" class="edge">
<title>105&#45;&gt;103</title>
<path fill="none" stroke="#ff0100" stroke-width="4" d="M238.5,-1011.75C238.5,-1003.74 238.5,-994.78 238.5,-986.04"/>
<polygon fill="#ff0100" stroke="#ff0100" stroke-width="4" points="242,-986.38 238.5,-976.38 235,-986.38 242,-986.38"/>
<text text-anchor="middle" x="255" y="-993.5" font-family="Arial" font-size="10.00" fill="#ff0100">99.95%</text>
<text text-anchor="middle" x="255" y="-981.5" font-family="Arial" font-size="10.00" fill="#ff0100">49353×</text>
</g>
<!-- 97 -->
<g id="node13" class="node">
<title>97</title>
<g id="a_node13"><a xlink:title="/home/tomiguez/repos/2023&#45;2c&#45;tp&#45;tomas&#45;martin&#45;ignacio&#45;3/tlengrep/automata/af.py">
<polygon fill="#0c9a7e" stroke="#0c9a7e" points="302,-448 187,-448 187,-392 302,-392 302,-448"/>
<text text-anchor="middle" x="244.5" y="-434.5" font-family="Arial" font-size="10.00" fill="#ffffff">af:52:normalize_states</text>
<text text-anchor="middle" x="244.5" y="-422.5" font-family="Arial" font-size="10.00" fill="#ffffff">29.91%</text>
<text text-anchor="middle" x="244.5" y="-410.5" font-family="Arial" font-size="10.00" fill="#ffffff">(5.30%)</text>
<text text-anchor="middle" x="244.5" y="-398.5" font-family="Arial" font-size="10.00" fill="#ffffff">1147361×</text>
</a>
</g>
</g>
<!-- 134 -->
<g id="node14" class="node">
<title>134</title>
<g id="a_node14"><a xlink:title="/home/tomiguez/repos/2023&#45;2c&#45;tp&#45;tomas&#45;martin&#45;ignacio&#45;3/tlengrep/automata/af.py">
<polygon fill="#0c8991" stroke="#0c8991" points="223.38,-350 113.62,-350 113.62,-294 223.38,-294 223.38,-350"/>
<text text-anchor="middle" x="168.5" y="-336.5" font-family="Arial" font-size="10.00" fill="#ffffff">af:112:_rename_state</text>
<text text-anchor="middle" x="168.5" y="-324.5" font-family="Arial" font-size="10.00" fill="#ffffff">23.47%</text>
<text text-anchor="middle" x="168.5" y="-312.5" font-family="Arial" font-size="10.00" fill="#ffffff">(0.94%)</text>
<text text-anchor="middle" x="168.5" y="-300.5" font-family="Arial" font-size="10.00" fill="#ffffff">11926190×</text>
</a>
</g>
</g>
<!-- 97&#45;&gt;134 -->
<g id="edge10" class="edge">
<title>97&#45;&gt;134</title>
<path fill="none" stroke="#0c8991" stroke-width="0.94" d="M222.92,-391.75C213.86,-380.3 203.25,-366.89 193.82,-354.98"/>
<polygon fill="#0c8991" stroke="#0c8991" stroke-width="0.94" points="195.31,-354.16 191.01,-351.44 192.67,-356.24 195.31,-354.16"/>
<text text-anchor="middle" x="240.5" y="-373.5" font-family="Arial" font-size="10.00" fill="#0c8991">23.47%</text>
<text text-anchor="middle" x="240.5" y="-361.5" font-family="Arial" font-size="10.00" fill="#0c8991">11926190×</text>
</g>
<!-- 508 -->
<g id="node15" class="node">
<title>508</title>
<g id="a_node15"><a xlink:title="~">
<polygon fill="#0d1074" stroke="#0d1074" points="407,-350 232,-350 232,-294 407,-294 407,-350"/>
<text text-anchor="middle" x="319.5" y="-336.5" font-family="Arial" font-size="10.00" fill="#ffffff">~:0:&lt;method &#39;keys&#39; of &#39;dict&#39; objects&gt;</text>
<text text-anchor="middle" x="319.5" y="-324.5" font-family="Arial" font-size="10.00" fill="#ffffff">0.79%</text>
<text text-anchor="middle" x="319.5" y="-312.5" font-family="Arial" font-size="10.00" fill="#ffffff">(0.79%)</text>
<text text-anchor="middle" x="319.5" y="-300.5" font-family="Arial" font-size="10.00" fill="#ffffff">177129180×</text>
</a>
</g>
</g>
<!-- 97&#45;&gt;508 -->
<g id="edge11" class="edge">
<title>97&#45;&gt;508</title>
<path fill="none" stroke="#0d1074" stroke-width="0.5" d="M265.79,-391.75C275.13,-379.79 286.14,-365.7 295.74,-353.41"/>
<polygon fill="#0d1074" stroke="#0d1074" stroke-width="0.5" points="296.5,-354.43 297.69,-350.92 294.57,-352.92 296.5,-354.43"/>
<text text-anchor="middle" x="318.12" y="-373.5" font-family="Arial" font-size="10.00" fill="#0d1074">0.79%</text>
<text text-anchor="middle" x="318.12" y="-361.5" font-family="Arial" font-size="10.00" fill="#0d1074">177128810×</text>
</g>
<!-- 133 -->
<g id="node27" class="node">
<title>133</title>
<g id="a_node27"><a xlink:title="/home/tomiguez/repos/2023&#45;2c&#45;tp&#45;tomas&#45;martin&#45;ignacio&#45;3/tlengrep/automata/afd.py">
<polygon fill="#0d1b77" stroke="#0d1b77" points="229.25,-252 55.75,-252 55.75,-196 229.25,-196 229.25,-252"/>
<text text-anchor="middle" x="142.5" y="-238.5" font-family="Arial" font-size="10.00" fill="#ffffff">afd:78:_rename_state_in_transitions</text>
<text text-anchor="middle" x="142.5" y="-226.5" font-family="Arial" font-size="10.00" fill="#ffffff">3.25%</text>
<text text-anchor="middle" x="142.5" y="-214.5" font-family="Arial" font-size="10.00" fill="#ffffff">(3.25%)</text>
<text text-anchor="middle" x="142.5" y="-202.5" font-family="Arial" font-size="10.00" fill="#ffffff">554018×</text>
</a>
</g>
</g>
<!-- 134&#45;&gt;133 -->
<g id="edge26" class="edge">
<title>134&#45;&gt;133</title>
<path fill="none" stroke="#0d1b77" stroke-width="0.5" d="M161.12,-293.75C157.96,-282.09 154.26,-268.42 150.99,-256.35"/>
<polygon fill="#0d1b77" stroke="#0d1b77" stroke-width="0.5" points="152.19,-256.11 150.1,-253.05 149.83,-256.75 152.19,-256.11"/>
<text text-anchor="middle" x="178.25" y="-275.5" font-family="Arial" font-size="10.00" fill="#0d1b77">3.25%</text>
<text text-anchor="middle" x="178.25" y="-263.5" font-family="Arial" font-size="10.00" fill="#0d1b77">554018×</text>
</g>
<!-- 358 -->
<g id="node28" class="node">
<title>358</title>
<g id="a_node28"><a xlink:title="/home/tomiguez/repos/2023&#45;2c&#45;tp&#45;tomas&#45;martin&#45;ignacio&#45;3/tlengrep/automata/afnd.py">
<polygon fill="#0c6d8c" stroke="#0c6d8c" points="422.5,-252 238.5,-252 238.5,-196 422.5,-196 422.5,-252"/>
<text text-anchor="middle" x="330.5" y="-238.5" font-family="Arial" font-size="10.00" fill="#ffffff">afnd:180:_rename_state_in_transitions</text>
<text text-anchor="middle" x="330.5" y="-226.5" font-family="Arial" font-size="10.00" fill="#ffffff">19.07%</text>
<text text-anchor="middle" x="330.5" y="-214.5" font-family="Arial" font-size="10.00" fill="#ffffff">(14.04%)</text>
<text text-anchor="middle" x="330.5" y="-202.5" font-family="Arial" font-size="10.00" fill="#ffffff">10704873×</text>
</a>
</g>
</g>
<!-- 134&#45;&gt;358 -->
<g id="edge27" class="edge">
<title>134&#45;&gt;358</title>
<path fill="none" stroke="#0c6d8c" stroke-width="0.76" d="M214.49,-293.75C234.75,-281.74 258.64,-267.59 279.45,-255.25"/>
<polygon fill="#0c6d8c" stroke="#0c6d8c" stroke-width="0.76" points="280.12,-256.64 283.12,-253.07 278.55,-253.99 280.12,-256.64"/>
<text text-anchor="middle" x="293.5" y="-275.5" font-family="Arial" font-size="10.00" fill="#0c6d8c">19.07%</text>
<text text-anchor="middle" x="293.5" y="-263.5" font-family="Arial" font-size="10.00" fill="#0c6d8c">10704873×</text>
</g>
<!-- 98 -->
<g id="node16" class="node">
<title>98</title>
<g id="a_node16"><a xlink:title="/home/tomiguez/repos/2023&#45;2c&#45;tp&#45;tomas&#45;martin&#45;ignacio&#45;3/tlengrep/automata/afd.py">
<polygon fill="#8acd07" stroke="#8acd07" points="336,-872 251,-872 251,-816 336,-816 336,-872"/>
<text text-anchor="middle" x="293.5" y="-858.5" font-family="Arial" font-size="10.00" fill="#ffffff">afd:21:minimize</text>
<text text-anchor="middle" x="293.5" y="-846.5" font-family="Arial" font-size="10.00" fill="#ffffff">66.55%</text>
<text text-anchor="middle" x="293.5" y="-834.5" font-family="Arial" font-size="10.00" fill="#ffffff">(64.22%)</text>
<text text-anchor="middle" x="293.5" y="-822.5" font-family="Arial" font-size="10.00" fill="#ffffff">49353×</text>
</a>
</g>
</g>
<!-- 98&#45;&gt;97 -->
<g id="edge12" class="edge">
<title>98&#45;&gt;97</title>
<path fill="none" stroke="#0d0d73" stroke-width="0.5" d="M271.01,-815.86C258.13,-797.58 244.5,-772.26 244.5,-747 244.5,-747 244.5,-747 244.5,-517 244.5,-495.46 244.5,-471.21 244.5,-452.46"/>
<polygon fill="#0d0d73" stroke="#0d0d73" stroke-width="0.5" points="245.73,-452.57 244.5,-449.07 243.28,-452.57 245.73,-452.57"/>
<text text-anchor="middle" x="260.62" y="-618.5" font-family="Arial" font-size="10.00" fill="#0d0d73">0.14%</text>
<text text-anchor="middle" x="260.62" y="-606.5" font-family="Arial" font-size="10.00" fill="#0d0d73">49352×</text>
</g>
<!-- 500 -->
<g id="node17" class="node">
<title>500</title>
<g id="a_node17"><a xlink:title="/home/tomiguez/repos/2023&#45;2c&#45;tp&#45;tomas&#45;martin&#45;ignacio&#45;3/tlengrep/automata/afd.py">
<polygon fill="#0d1475" stroke="#0d1475" points="364.88,-774 258.12,-774 258.12,-718 364.88,-718 364.88,-774"/>
<text text-anchor="middle" x="311.5" y="-760.5" font-family="Arial" font-size="10.00" fill="#ffffff">afd:10:add_transition</text>
<text text-anchor="middle" x="311.5" y="-748.5" font-family="Arial" font-size="10.00" fill="#ffffff">1.84%</text>
<text text-anchor="middle" x="311.5" y="-736.5" font-family="Arial" font-size="10.00" fill="#ffffff">(1.77%)</text>
<text text-anchor="middle" x="311.5" y="-724.5" font-family="Arial" font-size="10.00" fill="#ffffff">15218544×</text>
</a>
</g>
</g>
<!-- 98&#45;&gt;500 -->
<g id="edge13" class="edge">
<title>98&#45;&gt;500</title>
<path fill="none" stroke="#0d1274" stroke-width="0.5" d="M296.51,-815.7C297.84,-805.4 299.59,-793.61 301.75,-783 302.05,-781.52 302.38,-780 302.73,-778.48"/>
<polygon fill="#0d1274" stroke="#0d1274" stroke-width="0.5" points="303.9,-778.86 303.51,-775.17 301.51,-778.29 303.9,-778.86"/>
<text text-anchor="middle" x="323.88" y="-797.5" font-family="Arial" font-size="10.00" fill="#0d1274">1.35%</text>
<text text-anchor="middle" x="323.88" y="-785.5" font-family="Arial" font-size="10.00" fill="#0d1274">7607193×</text>
</g>
<!-- 99 -->
<g id="node18" class="node">
<title>99</title>
<g id="a_node18"><a xlink:title="/home/tomiguez/repos/2023&#45;2c&#45;tp&#45;tomas&#45;martin&#45;ignacio&#45;3/tlengrep/automata/afnd.py">
<polygon fill="#0d267a" stroke="#0d267a" points="465.25,-872 363.75,-872 363.75,-816 465.25,-816 465.25,-872"/>
<text text-anchor="middle" x="414.5" y="-858.5" font-family="Arial" font-size="10.00" fill="#ffffff">afnd:35:determinize</text>
<text text-anchor="middle" x="414.5" y="-846.5" font-family="Arial" font-size="10.00" fill="#ffffff">5.78%</text>
<text text-anchor="middle" x="414.5" y="-834.5" font-family="Arial" font-size="10.00" fill="#ffffff">(0.71%)</text>
<text text-anchor="middle" x="414.5" y="-822.5" font-family="Arial" font-size="10.00" fill="#ffffff">49353×</text>
</a>
</g>
</g>
<!-- 99&#45;&gt;97 -->
<g id="edge14" class="edge">
<title>99&#45;&gt;97</title>
<path fill="none" stroke="#0d1b77" stroke-width="0.5" d="M465.59,-819.15C491.89,-803.01 518.5,-778.82 518.5,-747 518.5,-747 518.5,-747 518.5,-517 518.5,-472.28 386.87,-443.44 306.08,-429.94"/>
<polygon fill="#0d1b77" stroke="#0d1b77" stroke-width="0.5" points="306.67,-428.8 303.02,-429.43 306.27,-431.21 306.67,-428.8"/>
<text text-anchor="middle" x="534.62" y="-618.5" font-family="Arial" font-size="10.00" fill="#0d1b77">3.32%</text>
<text text-anchor="middle" x="534.62" y="-606.5" font-family="Arial" font-size="10.00" fill="#0d1b77">49353×</text>
</g>
<!-- 99&#45;&gt;500 -->
<g id="edge17" class="edge">
<title>99&#45;&gt;500</title>
<path fill="none" stroke="#0d0f73" stroke-width="0.5" d="M379.46,-815.5C376.13,-812.68 372.85,-809.82 369.75,-807 359.54,-797.7 348.87,-787.02 339.49,-777.28"/>
<polygon fill="#0d0f73" stroke="#0d0f73" stroke-width="0.5" points="340.46,-776.51 337.15,-774.83 338.69,-778.21 340.46,-776.51"/>
<text text-anchor="middle" x="391.88" y="-797.5" font-family="Arial" font-size="10.00" fill="#0d0f73">0.49%</text>
<text text-anchor="middle" x="391.88" y="-785.5" font-family="Arial" font-size="10.00" fill="#0d0f73">7611351×</text>
</g>
<!-- 145 -->
<g id="node19" class="node">
<title>145</title>
<g id="a_node19"><a xlink:title="/home/tomiguez/repos/2023&#45;2c&#45;tp&#45;tomas&#45;martin&#45;ignacio&#45;3/tlengrep/automata/afnd.py">
<polygon fill="#0d1074" stroke="#0d1074" points="481.25,-644 385.75,-644 385.75,-588 481.25,-588 481.25,-644"/>
<text text-anchor="middle" x="433.5" y="-630.5" font-family="Arial" font-size="10.00" fill="#ffffff">afnd:94:_l_closure</text>
<text text-anchor="middle" x="433.5" y="-618.5" font-family="Arial" font-size="10.00" fill="#ffffff">0.68%</text>
<text text-anchor="middle" x="433.5" y="-606.5" font-family="Arial" font-size="10.00" fill="#ffffff">(0.55%)</text>
<text text-anchor="middle" x="433.5" y="-594.5" font-family="Arial" font-size="10.00" fill="#ffffff">7660704×</text>
</a>
</g>
</g>
<!-- 99&#45;&gt;145 -->
<g id="edge15" class="edge">
<title>99&#45;&gt;145</title>
<path fill="none" stroke="#0d0d73" stroke-width="0.5" d="M453.86,-815.58C456.04,-812.9 457.96,-810.04 459.5,-807 474.96,-776.45 475.15,-685.19 463.5,-653 462.84,-651.18 462.05,-649.39 461.15,-647.64"/>
<polygon fill="#0d0d73" stroke="#0d0d73" stroke-width="0.5" points="462.32,-647.22 459.54,-644.76 460.18,-648.42 462.32,-647.22"/>
<text text-anchor="middle" x="487.62" y="-748.5" font-family="Arial" font-size="10.00" fill="#0d0d73">0.10%</text>
<text text-anchor="middle" x="487.62" y="-736.5" font-family="Arial" font-size="10.00" fill="#0d0d73">49353×</text>
</g>
<!-- 146 -->
<g id="node20" class="node">
<title>146</title>
<g id="a_node20"><a xlink:title="/home/tomiguez/repos/2023&#45;2c&#45;tp&#45;tomas&#45;martin&#45;ignacio&#45;3/tlengrep/automata/afnd.py">
<polygon fill="#0d1174" stroke="#0d1174" points="454.75,-774 374.25,-774 374.25,-718 454.75,-718 454.75,-774"/>
<text text-anchor="middle" x="414.5" y="-760.5" font-family="Arial" font-size="10.00" fill="#ffffff">afnd:86:_move</text>
<text text-anchor="middle" x="414.5" y="-748.5" font-family="Arial" font-size="10.00" fill="#ffffff">1.07%</text>
<text text-anchor="middle" x="414.5" y="-736.5" font-family="Arial" font-size="10.00" fill="#ffffff">(0.49%)</text>
<text text-anchor="middle" x="414.5" y="-724.5" font-family="Arial" font-size="10.00" fill="#ffffff">7611351×</text>
</a>
</g>
</g>
<!-- 99&#45;&gt;146 -->
<g id="edge16" class="edge">
<title>99&#45;&gt;146</title>
<path fill="none" stroke="#0d1174" stroke-width="0.5" d="M414.5,-815.75C414.5,-804.09 414.5,-790.42 414.5,-778.35"/>
<polygon fill="#0d1174" stroke="#0d1174" stroke-width="0.5" points="415.73,-778.58 414.5,-775.08 413.28,-778.58 415.73,-778.58"/>
<text text-anchor="middle" x="435.88" y="-797.5" font-family="Arial" font-size="10.00" fill="#0d1174">1.07%</text>
<text text-anchor="middle" x="435.88" y="-785.5" font-family="Arial" font-size="10.00" fill="#0d1174">7611351×</text>
</g>
<!-- 146&#45;&gt;145 -->
<g id="edge34" class="edge">
<title>146&#45;&gt;145</title>
<path fill="none" stroke="#0d0f73" stroke-width="0.5" d="M415.5,-717.83C416.53,-699.41 418.6,-674.58 422.75,-653 423.04,-651.5 423.36,-649.98 423.72,-648.45"/>
<polygon fill="#0d0f73" stroke="#0d0f73" stroke-width="0.5" points="424.89,-648.8 424.53,-645.11 422.51,-648.22 424.89,-648.8"/>
<text text-anchor="middle" x="444.88" y="-683.5" font-family="Arial" font-size="10.00" fill="#0d0f73">0.57%</text>
<text text-anchor="middle" x="444.88" y="-671.5" font-family="Arial" font-size="10.00" fill="#0d0f73">7611351×</text>
</g>
<!-- 100 -->
<g id="node21" class="node">
<title>100</title>
<g id="a_node21"><a xlink:title="/home/tomiguez/repos/2023&#45;2c&#45;tp&#45;tomas&#45;martin&#45;ignacio&#45;3/tlengrep/automata/afnd.py">
<polygon fill="#0c968c" stroke="#0c968c" points="172.88,-546 84.12,-546 84.12,-490 172.88,-490 172.88,-546"/>
<text text-anchor="middle" x="128.5" y="-532.5" font-family="Arial" font-size="10.00" fill="#ffffff">afnd:166:_merge</text>
<text text-anchor="middle" x="128.5" y="-520.5" font-family="Arial" font-size="10.00" fill="#ffffff">26.67%</text>
<text text-anchor="middle" x="128.5" y="-508.5" font-family="Arial" font-size="10.00" fill="#ffffff">(0.15%)</text>
<text text-anchor="middle" x="128.5" y="-496.5" font-family="Arial" font-size="10.00" fill="#ffffff">524328×</text>
</a>
</g>
</g>
<!-- 100&#45;&gt;97 -->
<g id="edge18" class="edge">
<title>100&#45;&gt;97</title>
<path fill="none" stroke="#0c958d" stroke-width="1.06" d="M157.25,-489.71C168.67,-479.2 182.09,-467.26 194.75,-457 196.6,-455.5 198.5,-453.99 200.44,-452.48"/>
<polygon fill="#0c958d" stroke="#0c958d" stroke-width="1.06" points="201.39,-454 204.35,-449.48 199.22,-451.17 201.39,-454"/>
<text text-anchor="middle" x="216.88" y="-471.5" font-family="Arial" font-size="10.00" fill="#0c958d">26.46%</text>
<text text-anchor="middle" x="216.88" y="-459.5" font-family="Arial" font-size="10.00" fill="#0c958d">1048656×</text>
</g>
<!-- 103&#45;&gt;98 -->
<g id="edge19" class="edge">
<title>103&#45;&gt;98</title>
<path fill="none" stroke="#8acd07" stroke-width="2.66" d="M254.11,-913.75C259.63,-904.12 265.93,-893.11 271.86,-882.77"/>
<polygon fill="#8acd07" stroke="#8acd07" stroke-width="2.66" points="274.26,-884.36 275.85,-875.81 269.28,-881.5 274.26,-884.36"/>
<text text-anchor="middle" x="290" y="-895.5" font-family="Arial" font-size="10.00" fill="#8acd07">66.55%</text>
<text text-anchor="middle" x="290" y="-883.5" font-family="Arial" font-size="10.00" fill="#8acd07">49353×</text>
</g>
<!-- 103&#45;&gt;99 -->
<g id="edge20" class="edge">
<title>103&#45;&gt;99</title>
<path fill="none" stroke="#0d267a" stroke-width="0.5" d="M285.33,-917.25C293.09,-913.21 301.04,-909.03 308.5,-905 326.56,-895.25 346.15,-884.27 363.53,-874.4"/>
<polygon fill="#0d267a" stroke="#0d267a" stroke-width="0.5" points="363.88,-875.61 366.31,-872.81 362.67,-873.48 363.88,-875.61"/>
<text text-anchor="middle" x="366.62" y="-895.5" font-family="Arial" font-size="10.00" fill="#0d267a">5.78%</text>
<text text-anchor="middle" x="366.62" y="-883.5" font-family="Arial" font-size="10.00" fill="#0d267a">49353×</text>
</g>
<!-- 136 -->
<g id="node23" class="node">
<title>136</title>
<g id="a_node23"><a xlink:title="/home/tomiguez/repos/2023&#45;2c&#45;tp&#45;tomas&#45;martin&#45;ignacio&#45;3/tlengrep/regex/__init__.py">
<polygon fill="#0c968a" stroke="#0c968a" points="146,-872 43,-872 43,-816 146,-816 146,-872"/>
<text text-anchor="middle" x="94.5" y="-858.5" font-family="Arial" font-size="10.00" fill="#ffffff">__init__:110:to_afnd</text>
<text text-anchor="middle" x="94.5" y="-846.5" font-family="Arial" font-size="10.00" fill="#ffffff">27.21%</text>
<text text-anchor="middle" x="94.5" y="-834.5" font-family="Arial" font-size="10.00" fill="#ffffff">(0.03%)</text>
<text text-anchor="middle" x="94.5" y="-822.5" font-family="Arial" font-size="10.00" fill="#ffffff">240483×</text>
</a>
</g>
</g>
<!-- 103&#45;&gt;136 -->
<g id="edge21" class="edge">
<title>103&#45;&gt;136</title>
<path fill="none" stroke="#0c968b" stroke-width="1.08" d="M191.58,-915.55C185.76,-912.12 179.95,-908.55 174.5,-905 161.01,-896.2 146.8,-885.9 134.15,-876.35"/>
<polygon fill="#0c968b" stroke="#0c968b" stroke-width="1.08" points="135.38,-874.99 130.14,-873.29 133.17,-877.89 135.38,-874.99"/>
<text text-anchor="middle" x="191" y="-895.5" font-family="Arial" font-size="10.00" fill="#0c968b">27.12%</text>
<text text-anchor="middle" x="191" y="-883.5" font-family="Arial" font-size="10.00" fill="#0c968b">45081×</text>
</g>
<!-- 137 -->
<g id="node24" class="node">
<title>137</title>
<g id="a_node24"><a xlink:title="/home/tomiguez/repos/2023&#45;2c&#45;tp&#45;tomas&#45;martin&#45;ignacio&#45;3/tlengrep/regex/__init__.py">
<polygon fill="#0c8991" stroke="#0c8991" points="179.38,-774 75.62,-774 75.62,-718 179.38,-718 179.38,-774"/>
<text text-anchor="middle" x="127.5" y="-760.5" font-family="Arial" font-size="10.00" fill="#ffffff">__init__:133:to_afnd</text>
<text text-anchor="middle" x="127.5" y="-748.5" font-family="Arial" font-size="10.00" fill="#ffffff">23.50%</text>
<text text-anchor="middle" x="127.5" y="-736.5" font-family="Arial" font-size="10.00" fill="#ffffff">(0.05%)</text>
<text text-anchor="middle" x="127.5" y="-724.5" font-family="Arial" font-size="10.00" fill="#ffffff">283845×</text>
</a>
</g>
</g>
<!-- 103&#45;&gt;137 -->
<g id="edge22" class="edge">
<title>103&#45;&gt;137</title>
<path fill="none" stroke="#0d0d73" stroke-width="0.5" d="M230.53,-913.56C220.16,-878.08 203.07,-820.29 200.5,-816 191.82,-801.52 179.26,-788.13 167.01,-777.07"/>
<polygon fill="#0d0d73" stroke="#0d0d73" stroke-width="0.5" points="167.9,-776.22 164.47,-774.81 166.27,-778.05 167.9,-776.22"/>
<text text-anchor="middle" x="232.38" y="-846.5" font-family="Arial" font-size="10.00" fill="#0d0d73">0.15%</text>
<text text-anchor="middle" x="232.38" y="-834.5" font-family="Arial" font-size="10.00" fill="#0d0d73">4005×</text>
</g>
<!-- 136&#45;&gt;136 -->
<g id="edge29" class="edge">
<title>136&#45;&gt;136</title>
<path fill="none" stroke="#0d2b7b" stroke-width="0.5" d="M146.35,-851.55C151.63,-850.06 155,-847.54 155,-844 155,-841.45 153.26,-839.44 150.32,-837.95"/>
<polygon fill="#0d2b7b" stroke="#0d2b7b" stroke-width="0.5" points="150.77,-836.81 147.06,-836.72 149.9,-839.1 150.77,-836.81"/>
<text text-anchor="middle" x="171.12" y="-846.5" font-family="Arial" font-size="10.00" fill="#0d2b7b">6.80%</text>
<text text-anchor="middle" x="171.12" y="-834.5" font-family="Arial" font-size="10.00" fill="#0d2b7b">48285×</text>
</g>
<!-- 136&#45;&gt;137 -->
<g id="edge30" class="edge">
<title>136&#45;&gt;137</title>
<path fill="none" stroke="#0c8891" stroke-width="0.93" d="M122.99,-815.68C124.78,-812.91 126.33,-810 127.5,-807 130.72,-798.72 131.8,-789.29 131.8,-780.41"/>
<polygon fill="#0c8891" stroke="#0c8891" stroke-width="0.93" points="133.48,-780.52 131.68,-775.77 130.12,-780.61 133.48,-780.52"/>
<text text-anchor="middle" x="149" y="-797.5" font-family="Arial" font-size="10.00" fill="#0c8891">23.34%</text>
<text text-anchor="middle" x="149" y="-785.5" font-family="Arial" font-size="10.00" fill="#0c8891">39207×</text>
</g>
<!-- 129 -->
<g id="node25" class="node">
<title>129</title>
<g id="a_node25"><a xlink:title="/home/tomiguez/repos/2023&#45;2c&#45;tp&#45;tomas&#45;martin&#45;ignacio&#45;3/tlengrep/automata/afnd.py">
<polygon fill="#0d2179" stroke="#0d2179" points="85,-709 0,-709 0,-653 85,-653 85,-709"/>
<text text-anchor="middle" x="42.5" y="-695.5" font-family="Arial" font-size="10.00" fill="#ffffff">afnd:110:concat</text>
<text text-anchor="middle" x="42.5" y="-683.5" font-family="Arial" font-size="10.00" fill="#ffffff">4.68%</text>
<text text-anchor="middle" x="42.5" y="-671.5" font-family="Arial" font-size="10.00" fill="#ffffff">(0.04%)</text>
<text text-anchor="middle" x="42.5" y="-659.5" font-family="Arial" font-size="10.00" fill="#ffffff">240483×</text>
</a>
</g>
</g>
<!-- 136&#45;&gt;129 -->
<g id="edge28" class="edge">
<title>136&#45;&gt;129</title>
<path fill="none" stroke="#0d2179" stroke-width="0.5" d="M56.91,-815.89C54.63,-813.11 52.61,-810.14 51,-807 36.12,-777.97 35.76,-740.05 38.01,-713.62"/>
<polygon fill="#0d2179" stroke="#0d2179" stroke-width="0.5" points="39.22,-713.84 38.32,-710.24 36.78,-713.61 39.22,-713.84"/>
<text text-anchor="middle" x="70.25" y="-797.5" font-family="Arial" font-size="10.00" fill="#0d2179">4.68%</text>
<text text-anchor="middle" x="70.25" y="-785.5" font-family="Arial" font-size="10.00" fill="#0d2179">240483×</text>
</g>
<!-- 137&#45;&gt;136 -->
<g id="edge32" class="edge">
<title>137&#45;&gt;136</title>
<path fill="none" stroke="#0d1274" stroke-width="0.5" d="M98.58,-774.29C96.76,-777.06 95.19,-779.98 94,-783 90.5,-791.91 89.57,-802.15 89.83,-811.62"/>
<polygon fill="#0d1274" stroke="#0d1274" stroke-width="0.5" points="88.59,-811.43 89.97,-814.87 91.04,-811.32 88.59,-811.43"/>
<text text-anchor="middle" x="110.25" y="-797.5" font-family="Arial" font-size="10.00" fill="#0d1274">1.21%</text>
<text text-anchor="middle" x="110.25" y="-785.5" font-family="Arial" font-size="10.00" fill="#0d1274">41118×</text>
</g>
<!-- 137&#45;&gt;137 -->
<g id="edge33" class="edge">
<title>137&#45;&gt;137</title>
<path fill="none" stroke="#0c768d" stroke-width="0.82" d="M179.67,-753.55C184.98,-752.06 188.38,-749.54 188.38,-746 188.38,-743.79 187.05,-741.97 184.76,-740.56"/>
<polygon fill="#0c768d" stroke="#0c768d" stroke-width="0.82" points="185.58,-739.19 180.82,-738.92 184.37,-742.1 185.58,-739.19"/>
<text text-anchor="middle" x="204.88" y="-748.5" font-family="Arial" font-size="10.00" fill="#0c768d">20.40%</text>
<text text-anchor="middle" x="204.88" y="-736.5" font-family="Arial" font-size="10.00" fill="#0c768d">30663×</text>
</g>
<!-- 130 -->
<g id="node26" class="node">
<title>130</title>
<g id="a_node26"><a xlink:title="/home/tomiguez/repos/2023&#45;2c&#45;tp&#45;tomas&#45;martin&#45;ignacio&#45;3/tlengrep/automata/afnd.py">
<polygon fill="#0c8290" stroke="#0c8290" points="168.38,-644 88.62,-644 88.62,-588 168.38,-588 168.38,-644"/>
<text text-anchor="middle" x="128.5" y="-630.5" font-family="Arial" font-size="10.00" fill="#ffffff">afnd:127:union</text>
<text text-anchor="middle" x="128.5" y="-618.5" font-family="Arial" font-size="10.00" fill="#ffffff">22.31%</text>
<text text-anchor="middle" x="128.5" y="-606.5" font-family="Arial" font-size="10.00" fill="#ffffff">(0.06%)</text>
<text text-anchor="middle" x="128.5" y="-594.5" font-family="Arial" font-size="10.00" fill="#ffffff">283845×</text>
</a>
</g>
</g>
<!-- 137&#45;&gt;130 -->
<g id="edge31" class="edge">
<title>137&#45;&gt;130</title>
<path fill="none" stroke="#0c8290" stroke-width="0.89" d="M127.71,-717.54C127.87,-697.88 128.08,-671.31 128.24,-650.42"/>
<polygon fill="#0c8290" stroke="#0c8290" stroke-width="0.89" points="129.88,-650.47 128.28,-645.76 126.59,-650.45 129.88,-650.47"/>
<text text-anchor="middle" x="147.25" y="-683.5" font-family="Arial" font-size="10.00" fill="#0c8290">22.31%</text>
<text text-anchor="middle" x="147.25" y="-671.5" font-family="Arial" font-size="10.00" fill="#0c8290">283845×</text>
</g>
<!-- 129&#45;&gt;100 -->
<g id="edge24" class="edge">
<title>129&#45;&gt;100</title>
<path fill="none" stroke="#0d2079" stroke-width="0.5" d="M38.33,-652.82C36.67,-633.71 37.09,-608.07 47,-588 54.63,-572.54 67.47,-559.22 80.72,-548.51"/>
<polygon fill="#0d2079" stroke="#0d2079" stroke-width="0.5" points="81.16,-549.72 83.14,-546.59 79.64,-547.8 81.16,-549.72"/>
<text text-anchor="middle" x="66.25" y="-618.5" font-family="Arial" font-size="10.00" fill="#0d2079">4.55%</text>
<text text-anchor="middle" x="66.25" y="-606.5" font-family="Arial" font-size="10.00" fill="#0d2079">240483×</text>
</g>
<!-- 130&#45;&gt;100 -->
<g id="edge25" class="edge">
<title>130&#45;&gt;100</title>
<path fill="none" stroke="#0c8090" stroke-width="0.88" d="M128.5,-587.75C128.5,-576.7 128.5,-563.84 128.5,-552.25"/>
<polygon fill="#0c8090" stroke="#0c8090" stroke-width="0.88" points="130.15,-552.35 128.5,-547.65 126.86,-552.35 130.15,-552.35"/>
<text text-anchor="middle" x="147.25" y="-569.5" font-family="Arial" font-size="10.00" fill="#0c8090">22.12%</text>
<text text-anchor="middle" x="147.25" y="-557.5" font-family="Arial" font-size="10.00" fill="#0c8090">283845×</text>
</g>
<!-- 356 -->
<g id="node30" class="node">
<title>356</title>
<g id="a_node30"><a xlink:title="/usr/lib/python3.11/enum.py">
<polygon fill="#0d2379" stroke="#0d2379" points="385,-154 276,-154 276,-98 385,-98 385,-154"/>
<text text-anchor="middle" x="330.5" y="-140.5" font-family="Arial" font-size="10.00" fill="#ffffff">enum:1231:__hash__</text>
<text text-anchor="middle" x="330.5" y="-128.5" font-family="Arial" font-size="10.00" fill="#ffffff">5.04%</text>
<text text-anchor="middle" x="330.5" y="-116.5" font-family="Arial" font-size="10.00" fill="#ffffff">(3.72%)</text>
<text text-anchor="middle" x="330.5" y="-104.5" font-family="Arial" font-size="10.00" fill="#ffffff">266744585×</text>
</a>
</g>
</g>
<!-- 358&#45;&gt;356 -->
<g id="edge40" class="edge">
<title>358&#45;&gt;356</title>
<path fill="none" stroke="#0d2279" stroke-width="0.5" d="M330.5,-195.75C330.5,-184.09 330.5,-170.42 330.5,-158.35"/>
<polygon fill="#0d2279" stroke="#0d2279" stroke-width="0.5" points="331.73,-158.58 330.5,-155.08 329.28,-158.58 331.73,-158.58"/>
<text text-anchor="middle" x="357.12" y="-177.5" font-family="Arial" font-size="10.00" fill="#0d2279">4.89%</text>
<text text-anchor="middle" x="357.12" y="-165.5" font-family="Arial" font-size="10.00" fill="#0d2279">259920351×</text>
</g>
<!-- 278&#45;&gt;38 -->
<g id="edge38" class="edge">
<title>278&#45;&gt;38</title>
<path fill="none" stroke="#ff0000" stroke-width="4" d="M429,-1403.75C425.79,-1395.44 422.19,-1386.1 418.71,-1377.05"/>
<polygon fill="#ff0000" stroke="#ff0000" stroke-width="4" points="422.07,-1376.04 415.21,-1367.97 415.54,-1378.56 422.07,-1376.04"/>
<text text-anchor="middle" x="442" y="-1385.5" font-family="Arial" font-size="10.00" fill="#ff0000">99.99%</text>
<text text-anchor="middle" x="442" y="-1373.5" font-family="Arial" font-size="10.00" fill="#ff0000">2029×</text>
</g>
<!-- 417 -->
<g id="node31" class="node">
<title>417</title>
<g id="a_node31"><a xlink:title="~">
<polygon fill="#0d1274" stroke="#0d1274" points="413.88,-56 247.12,-56 247.12,0 413.88,0 413.88,-56"/>
<text text-anchor="middle" x="330.5" y="-42.5" font-family="Arial" font-size="10.00" fill="#ffffff">~:0:&lt;built&#45;in method builtins.hash&gt;</text>
<text text-anchor="middle" x="330.5" y="-30.5" font-family="Arial" font-size="10.00" fill="#ffffff">1.32%</text>
<text text-anchor="middle" x="330.5" y="-18.5" font-family="Arial" font-size="10.00" fill="#ffffff">(1.32%)</text>
<text text-anchor="middle" x="330.5" y="-6.5" font-family="Arial" font-size="10.00" fill="#ffffff">266750505×</text>
</a>
</g>
</g>
<!-- 356&#45;&gt;417 -->
<g id="edge39" class="edge">
<title>356&#45;&gt;417</title>
<path fill="none" stroke="#0d1274" stroke-width="0.5" d="M330.5,-97.75C330.5,-86.09 330.5,-72.42 330.5,-60.35"/>
<polygon fill="#0d1274" stroke="#0d1274" stroke-width="0.5" points="331.73,-60.58 330.5,-57.08 329.28,-60.58 331.73,-60.58"/>
<text text-anchor="middle" x="357.12" y="-79.5" font-family="Arial" font-size="10.00" fill="#0d1274">1.31%</text>
<text text-anchor="middle" x="357.12" y="-67.5" font-family="Arial" font-size="10.00" fill="#0d1274">266744585×</text>
</g>
</g>
</svg>
